<svg width="136" height="52" viewBox="0 0 136 52" fill="none" xmlns="http://www.w3.org/2000/svg">
<g clip-path="url(#clip0_2647_3683)">
<path d="M44.4681 20.7981C44.4326 20.7113 44.3931 20.6244 44.3537 20.5415C44.3142 20.4547 44.2668 20.3757 44.2195 20.2928C44.1681 20.2099 44.1208 20.131 44.0616 20.052C44.0063 19.9731 43.9471 19.8981 43.8839 19.8231C43.8208 19.7481 43.7536 19.6731 43.6865 19.606C43.3036 19.2191 42.8181 18.8994 42.2181 18.6744C42.076 18.623 41.9339 18.5678 41.7878 18.5244C41.5628 18.4533 41.3339 18.402 41.1049 18.3546C41.0023 18.3349 40.9036 18.3191 40.8049 18.3033C40.6904 18.2836 40.5759 18.2678 40.4615 18.252C40.3549 18.2401 40.2483 18.2283 40.1417 18.2165C39.972 18.2046 39.8062 18.1928 39.6404 18.1849C39.5812 18.1849 39.5259 18.1849 39.4706 18.1809C39.3522 18.177 39.2338 18.177 39.1154 18.177C38.1325 18.177 37.1495 18.177 36.1666 18.177H34.3981C33.9758 18.177 33.5652 18.1178 33.1784 17.9362C33.1586 17.9243 33.135 17.9125 33.1152 17.9007C33.0521 17.8651 32.9889 17.8296 32.9336 17.7862C32.8981 17.7586 32.8586 17.727 32.8271 17.6993C32.76 17.6362 32.7007 17.5651 32.6534 17.4901C32.6297 17.4507 32.606 17.4112 32.5863 17.3678C32.5468 17.2849 32.5192 17.1901 32.5034 17.0954C32.4284 16.6691 32.4678 16.2625 32.6652 15.9032C32.6968 15.848 32.7323 15.7927 32.7678 15.7414C32.8073 15.6901 32.8507 15.6348 32.8981 15.5835C32.9257 15.5559 32.9534 15.5282 32.981 15.5006C33.0679 15.4177 33.1586 15.3388 33.2494 15.2638C33.3126 15.2124 33.3758 15.1611 33.435 15.1138C33.4981 15.0624 33.5573 15.0151 33.6205 14.9637C33.7981 14.8137 33.9876 14.8137 34.2008 14.8887C35.7048 15.4177 37.2482 15.4809 38.8075 15.2716C39.0048 15.244 39.1943 15.2124 39.3838 15.169C39.5101 15.1414 39.6364 15.1137 39.7588 15.0822C39.8851 15.0466 40.0036 15.0072 40.1259 14.9677C40.5483 14.8256 40.9549 14.6401 41.3378 14.4032C41.4483 14.3361 41.5589 14.265 41.6615 14.1861C41.772 14.1071 41.8786 14.0242 41.9812 13.9374C42.0799 13.8545 42.1786 13.7677 42.2694 13.6808L42.4036 13.5466C42.4431 13.5032 42.4865 13.4558 42.5299 13.4084C42.6799 13.2308 42.8181 13.0532 42.9365 12.8637C42.9839 12.7887 43.0273 12.7097 43.0668 12.6308C43.0865 12.5913 43.1063 12.5518 43.126 12.5124C43.1457 12.4729 43.1655 12.4334 43.1813 12.3939C43.2128 12.311 43.2444 12.2321 43.276 12.1453C43.2879 12.1058 43.3036 12.0584 43.3155 12.0189C43.3352 11.9597 43.351 11.9045 43.3668 11.8452C43.3747 11.8058 43.3865 11.7663 43.3944 11.7268C43.4023 11.6873 43.4102 11.6479 43.4181 11.6084C43.4655 11.3715 43.4852 11.1229 43.4852 10.8663C43.4852 10.7518 43.4813 10.6373 43.4734 10.5189C43.4694 10.4597 43.4615 10.4005 43.4536 10.3413C43.4536 10.3057 43.4457 10.2702 43.4418 10.2386V10.2307C43.4418 10.207 43.4418 10.1834 43.4339 10.1636C43.4102 10.0215 43.3826 9.87941 43.3471 9.74519C43.3352 9.69782 43.3234 9.6544 43.3076 9.61098C43.2721 9.49255 43.2326 9.37808 43.1852 9.26755C43.0036 8.81754 42.7352 8.4149 42.3918 8.05962C42.372 8.03594 42.3483 8.0162 42.3286 7.99646C42.3207 7.98462 42.3128 7.98067 42.3049 7.97278C42.2931 7.96094 42.2852 7.95304 42.2773 7.94515C42.2694 7.93725 42.2655 7.9333 42.2655 7.9333C42.2655 7.9333 42.1983 7.8662 42.1273 7.80699C42.1115 7.7912 42.0918 7.7754 42.072 7.75961C42.0444 7.73198 42.0128 7.7083 41.9812 7.68067L41.2154 7.1517C41.6418 6.9267 42.0444 6.65827 42.4076 6.32668C42.7352 6.03062 43.0115 5.69509 43.1971 5.29245C43.3392 4.98849 43.4102 4.66875 43.3984 4.31348H41.4957C41.4957 4.4319 41.4917 4.55033 41.4957 4.66875C41.5233 5.17008 41.4839 5.65562 41.3299 6.13326C41.2194 6.47274 41.0496 6.75301 40.8325 6.98591C40.6075 6.90301 40.3865 6.82407 40.1654 6.75301C40.1141 6.73722 40.0628 6.71748 40.0115 6.70169C39.9562 6.6859 39.9049 6.67012 39.8575 6.65433C39.8575 6.65433 39.8496 6.65433 39.8457 6.65433C39.7943 6.63854 39.743 6.62669 39.6917 6.6109C39.6483 6.59906 39.6128 6.58722 39.5891 6.58327C39.5772 6.58327 39.5654 6.58327 39.5575 6.57537C39.5575 6.57537 39.5535 6.57537 39.5496 6.57537C39.4706 6.55169 39.3996 6.53985 39.3364 6.52406C39.3167 6.52011 39.297 6.51616 39.2812 6.51222C39.1035 6.47274 38.9219 6.43721 38.7404 6.41353C38.5588 6.3859 38.3811 6.36616 38.1996 6.35037C37.5719 6.2951 36.9364 6.303 36.3048 6.37406C36.1864 6.3859 36.0679 6.40168 35.9495 6.41747C35.7324 6.44905 35.5153 6.48853 35.3061 6.53195C35.0692 6.58327 34.8363 6.64643 34.6074 6.72143C34.4297 6.78064 34.2521 6.84775 34.0784 6.92275C33.9047 6.99776 33.735 7.0767 33.5692 7.16749C33.3402 7.29381 33.1192 7.43592 32.906 7.59382C32.8073 7.66488 32.7165 7.74383 32.6178 7.82278C32.5271 7.90173 32.4402 7.98462 32.3534 8.06357C32.3297 8.0912 32.302 8.11884 32.2744 8.14647C32.1402 8.28463 32.0178 8.42279 31.9073 8.5728C31.8678 8.62806 31.8205 8.68727 31.781 8.75043C31.6981 8.86885 31.627 8.99123 31.5599 9.11754C31.5283 9.1807 31.4968 9.24387 31.4691 9.30702C31.4257 9.40176 31.3862 9.4965 31.3507 9.59914C31.3152 9.69782 31.2875 9.79651 31.2599 9.89915C31.1415 10.3531 31.1099 10.8347 31.1731 11.3439C31.1889 11.5137 31.2204 11.6834 31.2599 11.861C31.2639 11.8768 31.2678 11.8966 31.2757 11.9124C31.2836 11.9518 31.2915 11.9874 31.3033 12.0268C31.3112 12.0584 31.3191 12.086 31.327 12.1137C31.3428 12.1689 31.3586 12.2203 31.3783 12.2755C31.3941 12.3229 31.4099 12.3663 31.4297 12.4097C31.4454 12.4492 31.4612 12.4887 31.481 12.5321C31.4968 12.5755 31.5204 12.6189 31.5362 12.6663C31.5678 12.7295 31.5994 12.7887 31.627 12.8479C31.6586 12.9111 31.6941 12.9663 31.7297 13.0255C31.7533 13.069 31.781 13.1124 31.8126 13.1519C31.8323 13.1834 31.852 13.215 31.8757 13.2466C31.9389 13.3413 32.0139 13.4321 32.0889 13.519C32.1757 13.6216 32.2705 13.7203 32.3692 13.819C32.4205 13.8703 32.4678 13.9177 32.5192 13.9611C32.6021 14.0321 32.6889 14.0993 32.7757 14.1664C32.91 14.2729 33.0521 14.3716 33.2021 14.4624C33.2297 14.4822 33.2613 14.4979 33.2889 14.5137C33.3758 14.5651 33.4665 14.6203 33.5692 14.6795C33.1429 14.9519 32.7363 15.1848 32.3573 15.4611C32.1165 15.6388 31.8955 15.8282 31.6981 16.0375C31.631 16.1085 31.5678 16.1796 31.5086 16.2546C31.4494 16.3296 31.3902 16.4046 31.3389 16.4835C31.256 16.6019 31.181 16.7243 31.1139 16.8546C31.0665 16.9414 31.0231 17.0322 30.9836 17.1191C30.9639 17.1664 30.9441 17.2138 30.9283 17.2572C30.9125 17.3006 30.8967 17.3441 30.881 17.3835C30.8178 17.5651 30.7744 17.7507 30.7546 17.9283C30.7507 17.9678 30.7428 18.0072 30.7428 18.0467C30.7428 18.0586 30.7428 18.0743 30.7428 18.0941C30.7428 18.1454 30.7349 18.1928 30.7349 18.2441C30.7349 18.6507 30.8375 19.0336 31.0428 19.3691C31.0941 19.452 31.1494 19.531 31.2125 19.6099L31.2757 19.6849C31.331 19.7481 31.3862 19.8033 31.4454 19.8626C31.5441 19.9573 31.6586 20.0441 31.781 20.127C31.8757 20.1902 31.9823 20.2494 32.0928 20.3047C32.3376 20.4231 32.602 20.5139 32.8665 20.5928C32.9652 20.6244 33.0718 20.652 33.1705 20.6797C33.206 20.6915 33.2376 20.6994 33.2692 20.7073C33.3718 20.7389 33.4823 20.7586 33.5889 20.7784C33.6639 20.7902 33.7468 20.8021 33.8258 20.8099C33.9284 20.8257 34.031 20.8376 34.1337 20.8573C34.1258 20.8573 34.1179 20.8692 34.11 20.8731C34.1021 20.8771 34.0902 20.8849 34.0863 20.8889C34.0152 20.9284 33.9402 20.9521 33.8692 20.9757C33.8573 20.9797 33.8455 20.9836 33.8337 20.9876C33.8258 20.9915 33.8179 20.9955 33.806 20.9955C33.7902 21.0034 33.7744 21.0073 33.7626 21.0113C33.7468 21.0152 33.731 21.0192 33.7152 21.0231C33.581 21.0665 33.4508 21.11 33.3205 21.1534C33.0521 21.2363 32.7915 21.3231 32.531 21.4179C32.456 21.4455 32.381 21.4731 32.3139 21.5047C32.2863 21.5165 32.2586 21.5244 32.231 21.5363C32.2034 21.5481 32.1718 21.56 32.1441 21.5718C32.0455 21.6113 31.9507 21.6587 31.856 21.71C31.5402 21.8797 31.2599 22.0929 31.0112 22.3534C30.9362 22.4284 30.8652 22.5113 30.7981 22.5942C30.2888 23.2179 30.1309 23.9206 30.3599 24.6982C30.4862 25.1206 30.7073 25.468 31.0033 25.7601C31.0389 25.7956 31.0744 25.8272 31.1099 25.8588C31.2165 25.9535 31.327 26.0482 31.4494 26.1311C31.4652 26.139 31.477 26.1469 31.4889 26.1548C31.5086 26.1706 31.5323 26.1864 31.552 26.1982C32.006 26.4982 32.5073 26.7114 33.0244 26.8772C33.1034 26.9009 33.1823 26.9246 33.2652 26.9483C33.3679 26.9798 33.4744 27.0075 33.581 27.0312C33.6837 27.0548 33.7902 27.0825 33.8968 27.1062C34.8126 27.2996 35.7442 27.3746 36.6877 27.3983C37.8443 27.4259 38.9812 27.347 40.0904 27.0706C40.3154 27.0154 40.5365 26.9483 40.7615 26.8811C40.8365 26.8575 40.9075 26.8298 40.9786 26.8062C41.1246 26.7548 41.2667 26.6996 41.4049 26.6443C41.5431 26.5851 41.6812 26.5259 41.8194 26.4588C42.4273 26.1706 42.9878 25.7995 43.4813 25.3219C43.5918 25.2193 43.6984 25.1087 43.801 24.9903C44.78 23.8811 45.0563 22.2152 44.4918 20.8336L44.4681 20.7981ZM34.5126 8.90438C34.5639 8.6399 34.6784 8.37542 34.8008 8.12673C35.3061 7.09249 36.1508 6.56748 37.2995 6.55958C38.4483 6.55169 39.2891 7.08065 39.8141 8.10305C40.0943 8.65174 40.2365 9.24781 40.2996 9.85177C40.4101 10.8623 40.3825 11.8689 40.0983 12.8558C40.0351 13.0808 39.9483 13.3019 39.8457 13.515C39.368 14.5177 38.5785 15.0703 37.4574 15.1019C36.289 15.1414 35.4284 14.6243 34.8679 13.6098C34.5758 13.0808 34.4258 12.5045 34.3508 11.9124C34.3034 11.5452 34.2955 11.1702 34.2718 10.7952C34.256 10.7913 34.2442 10.7873 34.2284 10.7834C34.3271 10.1557 34.4021 9.52413 34.5205 8.90438H34.5126ZM42.9918 25.1324C42.4352 25.7877 41.7247 26.2061 40.9312 26.5022C39.8338 26.9048 38.693 27.0509 37.8522 27.0391C36.5653 27.0391 35.614 26.964 34.6863 26.6719C34.0271 26.4667 33.431 26.1588 32.9376 25.6653C31.9428 24.6706 31.7849 22.2942 33.7271 21.3626C34.2995 21.0863 34.9074 20.9363 35.539 20.9363C37.3153 20.9205 39.0956 20.9244 40.8759 20.9402C41.3891 20.9481 41.8983 21.0428 42.3839 21.2442C43.1971 21.5837 43.6115 22.1955 43.6826 23.0679C43.7458 23.8613 43.501 24.5403 42.9918 25.1364V25.1324Z" fill="black"/>
<path d="M59.5082 17.8588C59.5082 17.8588 59.4806 17.8628 59.4687 17.8667C59.4253 17.8746 59.3858 17.8746 59.3503 17.8825C59.3385 17.8825 59.3266 17.8825 59.3148 17.8825C59.295 17.8825 59.2753 17.8944 59.2595 17.8983C59.2477 17.9023 59.2398 17.9102 59.2358 17.9141C59.22 17.926 59.2082 17.9417 59.1963 17.9615C59.1884 17.9694 59.1845 17.9773 59.1766 17.9852C59.1648 18.001 59.1529 18.0167 59.145 18.0365C59.1292 18.0602 59.1134 18.0917 59.0977 18.1194C59.0858 18.1431 59.07 18.1667 59.0542 18.1904C58.5766 18.9405 57.9963 19.576 57.2068 20.0142C56.0581 20.6497 54.8186 20.7089 53.5594 20.5431C53.4607 20.5313 53.362 20.5155 53.2633 20.4918C53.2593 20.4918 53.2515 20.4918 53.2475 20.4918C53.2475 20.4918 53.2436 20.4918 53.2357 20.4918C53.1962 20.48 53.1567 20.4721 53.1133 20.4602H53.1093C53.0857 20.4563 53.058 20.4484 53.0343 20.4405C52.983 20.4247 52.9278 20.4089 52.8725 20.3892C52.8212 20.3734 52.7659 20.3536 52.7146 20.3339C52.6554 20.3142 52.5962 20.2905 52.537 20.2629C52.4541 20.2273 52.3751 20.1918 52.3001 20.1484C52.2212 20.1089 52.1422 20.0655 52.0672 20.0221C51.9922 19.9747 51.9172 19.9273 51.8422 19.876C51.7712 19.8247 51.6962 19.7734 51.6251 19.7181C50.7448 19.0312 50.2553 18.0957 49.9593 17.0496C49.6198 15.8614 49.5764 14.6456 49.6158 13.4219C49.6158 13.4219 49.6158 13.4022 49.6198 13.3943C49.6198 13.3943 49.6198 13.3864 49.6237 13.3824C49.6316 13.3706 49.6395 13.3548 49.6474 13.339C49.6474 13.335 49.6514 13.3311 49.6553 13.3271C49.6632 13.3153 49.6711 13.2995 49.679 13.2837H59.7766C59.7648 13.2285 59.7529 13.1693 59.745 13.1179C59.7371 13.0666 59.7253 13.0074 59.7174 12.9561C59.7016 12.8653 59.6858 12.7745 59.67 12.6837C59.6543 12.5929 59.6385 12.5061 59.6227 12.4192C59.599 12.2969 59.5793 12.1745 59.5516 12.0561C59.5398 11.9929 59.5279 11.9258 59.5121 11.8626C59.5003 11.7955 59.4885 11.7324 59.4727 11.6692C59.445 11.5468 59.4135 11.4245 59.3779 11.306C59.3542 11.2153 59.3266 11.1284 59.299 11.0376C59.2713 10.9468 59.2437 10.86 59.2121 10.7731C59.1885 10.6981 59.1608 10.6231 59.1332 10.5521C59.1174 10.5087 59.0977 10.4652 59.0819 10.4258C59.0582 10.3665 59.0345 10.3113 59.0108 10.2521C58.9595 10.1376 58.9082 10.0271 58.8569 9.91259C58.8016 9.79812 58.7424 9.68759 58.6832 9.581C58.5648 9.35995 58.4345 9.14678 58.2924 8.93757C58.2647 8.89809 58.2371 8.85467 58.2055 8.8152C58.2055 8.8152 58.2016 8.81125 58.1976 8.80335C58.1976 8.80335 58.1897 8.79546 58.1897 8.79151C58.1897 8.79151 58.1897 8.78756 58.1818 8.78362C58.1542 8.74019 58.1226 8.69677 58.0911 8.65335C58.0555 8.60993 58.0239 8.56651 57.9884 8.51914C57.9529 8.47571 57.9174 8.43229 57.8858 8.38887C57.8503 8.34545 57.8147 8.30597 57.7792 8.26255C57.7437 8.22308 57.7042 8.1836 57.6687 8.14018C57.6331 8.09675 57.5976 8.06123 57.5581 8.02175C57.495 7.9586 57.4318 7.89938 57.3687 7.84017C57.2976 7.77306 57.2226 7.70596 57.1476 7.6428C57.1002 7.59938 57.0489 7.5599 56.9976 7.51648C56.9305 7.46516 56.8673 7.41384 56.8002 7.37042C56.7371 7.3191 56.666 7.27568 56.5989 7.23226C56.5476 7.19673 56.4923 7.16515 56.4371 7.13357C56.4094 7.11778 56.3818 7.10199 56.3542 7.08226C56.295 7.04673 56.2318 7.01515 56.1726 6.98357C56.1726 6.98357 56.1686 6.98357 56.1607 6.97567C56.0936 6.94015 56.0226 6.90462 55.9515 6.87304C55.8765 6.83751 55.8015 6.80593 55.7265 6.77041C55.6515 6.73883 55.5726 6.70725 55.4976 6.67961C55.4581 6.66382 55.4186 6.65198 55.3791 6.64014C55.3397 6.6283 55.3002 6.61646 55.2607 6.60067C55.1778 6.57303 55.0989 6.54935 55.016 6.52961C54.937 6.50593 54.8541 6.49014 54.7673 6.46645C54.6804 6.45066 54.5975 6.43092 54.5107 6.41514C54.5068 6.41514 54.4989 6.41514 54.491 6.41514C54.412 6.40329 54.3291 6.3875 54.2502 6.37961C54.1594 6.36776 54.0725 6.35592 53.9817 6.34803C53.7173 6.32434 53.4567 6.3125 53.2041 6.3125C53.1251 6.3125 53.0462 6.3125 52.9672 6.31645C52.908 6.31645 52.8449 6.31645 52.7857 6.32434C52.7422 6.32434 52.6988 6.33224 52.6554 6.33618C52.6041 6.33618 52.5528 6.34408 52.5054 6.34803C52.4304 6.35198 52.3593 6.35987 52.2883 6.37171C52.2488 6.37171 52.2133 6.37961 52.1738 6.3875C52.1106 6.3954 52.0475 6.40724 51.9843 6.41908C51.933 6.42698 51.8856 6.43487 51.8383 6.44672C51.7751 6.45856 51.7119 6.47435 51.6527 6.48619C51.6093 6.49803 51.5659 6.50592 51.5225 6.51777C51.4119 6.5454 51.3054 6.57698 51.1948 6.60856C51.1435 6.62435 51.0882 6.64409 51.0369 6.65988C50.9738 6.67961 50.9146 6.69935 50.8553 6.72304C50.6974 6.7862 50.5435 6.84936 50.3935 6.92436C50.358 6.9362 50.3264 6.95199 50.2948 6.97173C50.2632 6.98752 50.2316 7.00331 50.1961 7.02305C50.133 7.05463 50.0698 7.09015 50.0066 7.12568C49.9435 7.1612 49.8803 7.20068 49.8172 7.23621C49.7066 7.30332 49.6001 7.37437 49.4935 7.44937C49.454 7.477 49.4145 7.50463 49.375 7.53621C49.3356 7.56385 49.2961 7.59938 49.2566 7.62701C49.1777 7.68622 49.1027 7.74938 49.0277 7.81254C48.9527 7.8757 48.8777 7.9428 48.8027 8.01386C48.7277 8.08096 48.6527 8.15202 48.5816 8.22308C48.5105 8.29808 48.4395 8.36913 48.3724 8.44413C48.3724 8.44413 48.3711 8.44413 48.3684 8.44413C48.3684 8.44413 48.3684 8.45203 48.3645 8.45203C48.2974 8.52703 48.2303 8.59808 48.1632 8.67703C48.1276 8.71651 48.0961 8.75598 48.0645 8.79546C48.0329 8.83493 48.0013 8.87441 47.9697 8.91783C47.9658 8.91783 47.9619 8.92572 47.9579 8.92967C47.8947 9.01257 47.8316 9.09547 47.7684 9.17836C46.1855 11.3416 45.8223 13.7851 46.4737 16.343C46.975 18.3286 48.1434 19.8523 50.0185 20.7879C51.5659 21.5616 53.1962 21.7787 54.8857 21.5221C54.9528 21.5103 55.0199 21.4984 55.087 21.4866C55.1462 21.4747 55.2015 21.4668 55.2568 21.455C55.2726 21.455 55.2884 21.4471 55.3081 21.4431C55.3634 21.4313 55.4186 21.4195 55.4739 21.4037C55.5252 21.3918 55.5686 21.38 55.6199 21.3681C55.6634 21.3563 55.7068 21.3445 55.7542 21.3326C55.7857 21.3247 55.8173 21.3129 55.8449 21.305C55.8884 21.2931 55.9318 21.2813 55.9713 21.2655C55.9949 21.2576 56.0226 21.2497 56.0463 21.2418C56.0581 21.2418 56.066 21.2379 56.0739 21.23C56.1173 21.2181 56.1607 21.2024 56.2042 21.1866C56.2594 21.1629 56.3186 21.1431 56.3778 21.1195C56.4923 21.0721 56.6029 21.0208 56.7134 20.9694C56.7529 20.9497 56.7923 20.93 56.8358 20.9102C56.895 20.8826 56.9502 20.8471 57.0094 20.8194C57.0726 20.7839 57.1358 20.7484 57.195 20.7089C57.3016 20.6458 57.4081 20.5747 57.5068 20.5036C57.5463 20.476 57.5818 20.4484 57.6213 20.4208C57.6647 20.3892 57.7081 20.3536 57.7516 20.3181C57.8108 20.2708 57.866 20.2273 57.9213 20.18C57.9213 20.18 57.9253 20.1721 57.9292 20.1721C57.9687 20.1405 58.0082 20.105 58.0476 20.0694C58.1384 19.9826 58.2253 19.8957 58.3121 19.8049C58.4779 19.6273 58.6398 19.4418 58.7858 19.2405C58.8608 19.1418 58.9319 19.0352 58.999 18.9286C59.0463 18.8536 59.0937 18.7786 59.1371 18.7036C59.1766 18.6365 59.2161 18.5654 59.2556 18.4983C59.2792 18.451 59.3069 18.4075 59.3306 18.3602C59.3306 18.3602 59.3306 18.3562 59.3306 18.3523C59.3819 18.2615 59.4292 18.1628 59.4727 18.0681C59.4766 18.0562 59.4806 18.0444 59.4845 18.0325C59.4845 18.0246 59.4845 18.0207 59.4885 18.0088C59.4885 17.997 59.4885 17.9812 59.4924 17.9575C59.4924 17.9299 59.5003 17.8944 59.5043 17.8549L59.5082 17.8588ZM50.2316 8.94941C50.3816 8.52308 50.5909 8.10465 50.8435 7.72964C51.6527 6.50988 53.0896 6.37171 54.0923 6.73093C54.6528 6.93225 55.0357 7.35068 55.3199 7.86386C55.6436 8.44019 55.8055 9.06783 55.9239 9.71127C56.1134 10.7218 56.1449 11.7482 56.1568 12.7706C56.1568 12.81 56.1331 12.8495 56.1094 12.9206H49.6908C49.6632 12.8811 49.6316 12.8574 49.6316 12.8377C49.675 11.5192 49.7895 10.2087 50.2237 8.9573L50.2316 8.94941Z" fill="black"/>
<path d="M72.9605 6.30859V9.58105C72.7552 9.58105 72.5539 9.59289 72.3526 9.58105C71.496 9.53368 70.6552 9.60473 69.8381 9.86526C68.5196 10.2955 67.6985 11.2153 67.2761 12.5061C67.2327 12.6364 67.2327 12.7785 67.2327 12.9167C67.2327 14.5706 67.2327 16.2286 67.2327 17.8865V19.9037C67.2327 20.5116 67.3393 20.6695 67.9472 20.7721C68.1485 20.8076 68.3538 20.8313 68.5591 20.8511V21.2458C66.5972 21.2458 64.6313 21.2458 62.6695 21.2458V20.9024C62.8155 20.8866 62.9576 20.8748 63.1037 20.859C63.23 20.8471 63.3524 20.8313 63.4747 20.7998C63.9682 20.6734 64.0629 20.555 64.0826 20.0537C64.0866 19.9313 64.0866 19.805 64.0866 19.6826C64.0866 15.8694 64.0866 12.0561 64.0866 8.2468C64.0866 8.08101 64.0866 7.91127 64.0748 7.74547C64.0392 7.30336 63.8695 7.10598 63.4076 7.05072C63.1155 7.01914 62.8195 7.00335 62.5273 6.98756V6.6915C64.0313 6.56913 66.9169 6.39939 67.2012 6.42702V11.8864C67.3946 11.7166 67.4222 11.539 67.4854 11.389C67.9827 10.1613 68.6104 9.00866 69.5104 8.01785C70.0196 7.46126 70.596 6.98361 71.2868 6.66387C71.8078 6.41912 72.3565 6.3007 72.9684 6.31649L72.9605 6.30859Z" fill="black"/>
<path d="M24.4149 5.19933C25.5676 5.23485 26.3966 4.45325 26.4163 3.32428C26.436 2.23872 25.6544 1.45318 24.5294 1.4216C23.4478 1.39397 22.5596 2.18741 22.5557 3.24928C22.5517 4.52825 23.4873 5.16775 24.4149 5.19933Z" fill="black"/>
<path d="M27.1662 20.8895V21.2487C25.2003 21.2487 23.2345 21.2487 21.2766 21.2487V20.9093C21.4463 20.8935 21.616 20.8777 21.7858 20.8579C21.8687 20.85 21.9516 20.8421 22.0345 20.8303C22.6108 20.7158 22.7648 20.5461 22.7648 19.9579C22.7648 15.9512 22.7648 11.9485 22.7608 7.94182C22.7608 7.28654 22.6069 7.1089 21.9516 7.026C21.6437 6.99048 21.3358 6.97469 21.0239 6.95495V6.67073C22.6345 6.58389 24.249 6.49309 25.8951 6.40625C25.903 6.55625 25.9148 6.69047 25.9148 6.82468V19.7132C25.9148 19.7961 25.9148 19.879 25.9148 19.9619C25.9188 20.5737 26.0648 20.7474 26.6728 20.8382C26.8346 20.8619 27.0004 20.8777 27.1701 20.8935L27.1662 20.8895Z" fill="black"/>
<path d="M18.7189 6.30805H18.1426C17.8662 5.55014 17.5899 4.79223 17.2939 4.04221C17.0294 3.35929 16.7373 2.68428 16.4254 2.01716C16.2754 1.69346 16.0741 1.38951 15.8649 1.0974C15.5214 0.615805 15.0399 0.331586 14.4517 0.319744C13.3424 0.296059 12.2293 0.311849 11.0648 0.311849C11.0569 0.4658 11.0411 0.611857 11.0411 0.757913C11.0411 1.67373 11.0411 2.58559 11.0411 3.5014C11.0411 6.90807 11.0411 10.3108 11.0411 13.7175V20.6097C11.1555 20.7282 11.3411 20.7913 11.6253 20.8347C11.7871 20.8584 11.9569 20.8742 12.1227 20.89V21.2492H7.6423H6.23305V20.9097C6.40279 20.894 6.57253 20.8782 6.74622 20.8584C6.82912 20.8505 6.91597 20.8466 6.99491 20.8308C7.35808 20.7597 7.55151 20.6689 7.64624 20.4637V13.7214C7.64624 11.6174 7.64624 9.5134 7.64624 7.4094C7.64624 7.13307 7.64624 6.85675 7.64624 6.58043V0.300007H5.6883C5.28566 0.300007 4.88302 0.300006 4.48038 0.303954C3.73036 0.315796 3.12639 0.627647 2.73165 1.26714C2.46717 1.70136 2.20269 2.15137 2.01321 2.62112C1.51977 3.84483 1.05792 5.07644 0.584225 6.30805H0C0 5.82646 0.0157891 5.34882 0.031579 4.87117C0.0552638 4.05405 0.0750019 3.23692 0.0986867 2.4198C0.122372 1.61846 0.150003 0.821073 0.173688 0H18.5097C18.5255 0.0828968 18.5531 0.161846 18.557 0.236848C18.5886 1.30661 18.6163 2.37243 18.6439 3.43824C18.6715 4.39353 18.6952 5.35277 18.7189 6.312V6.30805Z" fill="black"/>
<path d="M38.1322 45.4896V45.8685C36.7782 45.8685 35.4243 45.8685 34.0663 45.8685C34.0268 45.8685 33.9874 45.8488 33.9163 45.8291C33.9084 45.7146 33.8966 45.5962 33.8966 45.4777C33.8966 42.0237 33.8966 38.5736 33.8887 35.1196C33.8887 34.7327 33.8611 34.3419 33.7979 33.963C33.5847 32.7392 32.7715 32.0129 31.5202 31.9103C29.7596 31.7682 28.5043 32.5656 27.5964 34.0024C27.5135 34.1367 27.474 34.3182 27.4701 34.4722C27.4622 37.8433 27.4622 41.2105 27.4701 44.5817C27.4701 45.1817 27.6398 45.3672 28.2399 45.458C28.4293 45.4856 28.6267 45.5054 28.8162 45.5211V45.8725C27.1188 45.8764 25.4253 45.8725 23.7318 45.8725C23.4634 45.8725 23.191 45.8725 22.9226 45.8725V45.5211C23.0608 45.5093 23.1989 45.4935 23.3371 45.4817C23.4358 45.4738 23.5345 45.4659 23.6253 45.4462C24.2016 45.3238 24.3437 45.154 24.3437 44.5619C24.3437 40.5829 24.3437 36.6038 24.3437 32.6248C24.3437 32.5537 24.3437 32.4866 24.3358 32.4156C24.2845 31.9221 24.1069 31.7208 23.6095 31.6655C23.3568 31.6379 23.1042 31.6221 22.8516 31.6063V31.2787C24.3634 31.1958 25.8793 31.1129 27.4385 31.026C27.4583 31.9063 27.4385 32.7748 27.4583 33.7222C27.5688 33.584 27.6359 33.509 27.6991 33.4301C28.9267 31.8274 30.5097 30.8997 32.5781 30.9274C33.3084 30.9392 34.0111 31.0932 34.6703 31.4208C36.0203 32.0958 36.7782 33.1893 36.9756 34.6696C37.0151 34.9854 37.0309 35.3051 37.0309 35.6209C37.0348 38.4789 37.0309 41.3329 37.0309 44.1869V44.4356C37.0348 45.233 37.1769 45.383 37.9901 45.4738C38.0335 45.4777 38.0769 45.4817 38.1164 45.4856L38.1322 45.4896Z" fill="black"/>
<path d="M55.8091 43.9825C55.8091 43.9825 55.809 43.9668 55.8012 43.9589C55.8012 43.951 55.7972 43.947 55.7933 43.9391C55.7854 43.9233 55.7735 43.9075 55.7577 43.8957C55.734 43.876 55.7064 43.8562 55.663 43.8365C55.6433 43.8641 55.6275 43.8918 55.6077 43.9233C55.588 43.951 55.5683 43.9825 55.5485 44.0102C55.509 44.0694 55.4696 44.1286 55.4222 44.1839C55.2485 44.401 55.0867 44.6339 54.8814 44.8115C54.5616 45.0839 54.0958 45.2102 53.6972 45.0839C53.6814 45.0799 53.6656 45.072 53.6498 45.0681C53.63 45.0602 53.6103 45.0523 53.5945 45.0444C53.5669 45.0326 53.5393 45.0207 53.5116 45.0049C53.4603 44.9773 53.409 44.9418 53.3616 44.9023C53.3379 44.8826 53.3142 44.8628 53.2945 44.8391C53.2471 44.7918 53.2077 44.7405 53.1682 44.6812C53.1485 44.6536 53.1327 44.622 53.1129 44.5905C53.0971 44.5589 53.0774 44.5233 53.0616 44.4918C53.0458 44.4602 53.03 44.4207 53.0182 44.3852C53.0063 44.3418 52.9906 44.3062 52.9827 44.2628C52.9748 44.2391 52.9708 44.2115 52.9629 44.1878C52.959 44.1681 52.955 44.1523 52.9511 44.1365C52.9353 44.0457 52.9195 43.951 52.9077 43.8602C52.8998 43.8128 52.8958 43.7694 52.8919 43.722C52.88 43.6273 52.8761 43.5325 52.8682 43.4417C52.8603 43.2996 52.8563 43.1615 52.8563 43.0194C52.8563 42.0957 52.8563 41.168 52.8563 40.2443C52.8563 39.3206 52.8563 38.3929 52.8563 37.4692C52.8563 36.8534 52.8563 36.2337 52.8563 35.6179C52.8563 35.5192 52.8563 35.4165 52.8524 35.3179C52.8524 35.235 52.8484 35.1521 52.8406 35.0692C52.8406 35.0297 52.8406 34.9942 52.8327 34.9547C52.8287 34.8757 52.8208 34.7968 52.8129 34.7139C52.8011 34.6113 52.7892 34.5165 52.7734 34.4178C52.7616 34.3586 52.7537 34.3034 52.7419 34.2481C52.73 34.1928 52.7182 34.1376 52.7063 34.0862C52.6945 34.031 52.6827 33.9797 52.6669 33.9244C52.6511 33.8652 52.6313 33.806 52.6155 33.7468C52.6037 33.7112 52.5919 33.6797 52.58 33.6441C52.5721 33.6244 52.5682 33.6047 52.5563 33.5849C52.5445 33.5454 52.5287 33.506 52.5129 33.4665C52.4695 33.3678 52.4261 33.2731 52.3787 33.1783C52.3669 33.1586 52.355 33.1349 52.3432 33.1112C52.3313 33.0875 52.3195 33.0638 52.3037 33.0441C52.28 32.9967 52.2524 32.9533 52.2247 32.9099C52.205 32.8823 52.1853 32.8507 52.1655 32.8231C52.1537 32.8033 52.1379 32.7796 52.1221 32.7559C52.0984 32.7204 52.0708 32.6888 52.0471 32.6533C52.0155 32.6138 51.9839 32.5744 51.9484 32.5309C51.9247 32.5033 51.9011 32.4757 51.8734 32.448C51.8379 32.4086 51.8024 32.3691 51.7668 32.3336C51.7195 32.2862 51.6721 32.2388 51.6247 32.1954C51.5103 32.0928 51.3918 31.9941 51.2616 31.9072C51.1945 31.8599 51.1273 31.8204 51.0602 31.777C50.9221 31.6901 50.776 31.6151 50.6221 31.5441C50.2826 31.3862 49.9234 31.2638 49.5642 31.173C48.3207 30.8651 47.0575 30.8533 45.7943 31.0348C45.6917 31.0506 45.5851 31.0664 45.4825 31.0862C45.3917 31.102 45.3009 31.1217 45.2062 31.1414C45.1983 31.1414 45.1904 31.1454 45.1785 31.1493C45.0798 31.173 44.9851 31.1967 44.8904 31.2243C44.8904 31.2243 44.8825 31.2243 44.8785 31.2243C44.7917 31.248 44.7009 31.2756 44.614 31.3033C44.5509 31.323 44.4917 31.3427 44.4364 31.3664C44.3495 31.398 44.2666 31.4296 44.1838 31.4651C44.014 31.5322 43.8522 31.6072 43.6903 31.698C43.6114 31.7375 43.5285 31.7849 43.4495 31.8322C43.2324 31.9586 43.0311 32.1046 42.8456 32.2586C42.81 32.2862 42.7785 32.3178 42.7429 32.3454C42.7113 32.373 42.6758 32.4086 42.6442 32.4362C42.6008 32.4796 42.5613 32.5191 42.5179 32.5625C42.4666 32.6138 42.4153 32.6731 42.3679 32.7283C42.3442 32.752 42.3206 32.7836 42.3008 32.8112C42.289 32.827 42.2732 32.8507 42.2574 32.8704C42.2416 32.8862 42.2258 32.906 42.214 32.9257C42.1745 32.9731 42.1429 33.0244 42.1113 33.0757C42.0837 33.1152 42.0561 33.1546 42.0324 33.202C42.0126 33.2336 41.9969 33.2652 41.9771 33.2967C41.9574 33.3283 41.9416 33.3599 41.9258 33.3954C41.9021 33.4349 41.8824 33.4783 41.8626 33.5178C41.839 33.5731 41.8113 33.6283 41.7876 33.6836C41.764 33.7428 41.7403 33.7981 41.7205 33.8612C41.6969 33.9204 41.6771 33.9797 41.6613 34.0389C41.6376 34.1257 41.61 34.2126 41.5903 34.2994C41.5784 34.3547 41.5666 34.4139 41.5547 34.4691C41.5429 34.5205 41.535 34.5757 41.5311 34.627C41.5311 34.6349 41.5311 34.6428 41.5271 34.6547C41.5232 34.7099 41.5153 34.7652 41.5113 34.8205C41.5113 34.8639 41.5074 34.9034 41.5074 34.9428V34.9784C41.5074 35.0494 41.5074 35.1205 41.5153 35.1915C41.5192 35.2665 41.5271 35.3336 41.5389 35.4047C42.0403 35.4521 42.5377 35.4994 43.035 35.5468C43.3074 35.5705 43.5758 35.5981 43.8482 35.6218C44.0772 35.6455 44.3061 35.6652 44.5351 35.6889C44.5509 35.5863 44.5588 35.5389 44.5627 35.4876C44.5627 35.4284 44.5627 35.3692 44.5667 35.31C44.5667 35.0771 44.5746 34.8402 44.5824 34.6034C44.5903 34.4257 44.5982 34.252 44.614 34.0783C44.6259 33.9362 44.6456 33.7941 44.6653 33.652C44.693 33.5139 44.7167 33.3757 44.7561 33.2375C44.7917 33.0994 44.8351 32.9652 44.8864 32.8349C44.9377 32.7046 44.9969 32.5704 45.064 32.4441C45.0798 32.4125 45.0956 32.3809 45.1154 32.3533C45.1154 32.3454 45.1193 32.3415 45.1272 32.3375C45.1272 32.3375 45.1272 32.3336 45.1272 32.3296C45.1272 32.3217 45.1311 32.3178 45.1351 32.3138C45.1548 32.2823 45.1706 32.2546 45.1904 32.223C45.1904 32.223 45.1943 32.2151 45.1983 32.2112C45.2298 32.1599 45.2654 32.1125 45.3009 32.0612C45.3206 32.0336 45.3404 32.0059 45.364 31.9783C45.368 31.9665 45.3759 31.9586 45.3838 31.9507C45.4193 31.9072 45.4588 31.8638 45.4983 31.8243C45.5259 31.7967 45.5575 31.7651 45.5851 31.7375C45.6167 31.7099 45.6443 31.6822 45.6759 31.6585C45.7075 31.6349 45.7391 31.6072 45.7706 31.5835C45.8062 31.5599 45.8377 31.5362 45.8693 31.5125C45.9048 31.4928 45.9364 31.473 45.972 31.4493C46.043 31.4099 46.118 31.3743 46.197 31.3467C46.2483 31.327 46.2996 31.3072 46.3509 31.2954C46.4141 31.2756 46.4772 31.2599 46.5443 31.248C46.5562 31.248 46.5641 31.248 46.572 31.2441C46.8325 31.1967 47.097 31.173 47.3654 31.177C47.4444 31.177 47.5233 31.177 47.5983 31.1849C47.6496 31.1849 47.7049 31.1927 47.7562 31.1967C47.7681 31.1967 47.7759 31.1967 47.7878 31.1967C47.8075 31.1967 47.8312 31.2006 47.851 31.2046C47.8825 31.2046 47.9141 31.2085 47.9457 31.2164C47.9773 31.2164 48.0049 31.2243 48.0365 31.2322C48.0365 31.2322 48.0444 31.2322 48.0483 31.2322C48.1036 31.2441 48.1589 31.2559 48.2102 31.2717C48.2102 31.2717 48.2181 31.2717 48.222 31.2756C48.2496 31.2835 48.2773 31.2914 48.3049 31.3033C48.3325 31.3112 48.3602 31.323 48.3878 31.3309C48.4036 31.3388 48.4233 31.3427 48.4391 31.3546C48.4391 31.3546 48.447 31.3546 48.451 31.3546C48.4826 31.3704 48.5141 31.3822 48.5418 31.402C48.5812 31.4217 48.6207 31.4454 48.6562 31.4691C48.7352 31.5164 48.8062 31.5717 48.8733 31.6309C48.9049 31.6586 48.9365 31.6941 48.9681 31.7217C48.9957 31.7493 49.0194 31.7809 49.047 31.8086C49.122 31.8993 49.1931 31.998 49.2523 32.1086C49.272 32.1441 49.2918 32.1796 49.3076 32.2191C49.3628 32.3336 49.4063 32.4559 49.4457 32.5823C49.4615 32.6336 49.4734 32.6849 49.4931 32.7402C49.5049 32.7915 49.5168 32.8467 49.5326 32.8981C49.5444 32.9494 49.5563 33.0007 49.5642 33.0481C49.5681 33.0717 49.572 33.0954 49.576 33.1191C49.5839 33.1546 49.5878 33.1902 49.5957 33.2217C49.6036 33.2691 49.6115 33.3125 49.6194 33.3599C49.6194 33.3796 49.6194 33.3954 49.6234 33.4112C49.6313 33.4744 49.6392 33.5375 49.6471 33.6007C49.651 33.6481 49.6589 33.6954 49.6589 33.7428C49.6589 33.7941 49.6628 33.8415 49.6668 33.8889C49.7023 34.8836 49.6826 35.8863 49.6865 36.881C49.6865 36.9166 49.6865 36.9482 49.6786 36.9837C49.6786 37.0192 49.6668 37.0587 49.6668 37.0982L49.5523 37.1337C49.5128 37.1455 49.4773 37.1574 49.4418 37.1692C49.4023 37.1811 49.3707 37.1929 49.3313 37.2008C49.2957 37.2126 49.2563 37.2205 49.2207 37.2324C47.5904 37.6469 45.9641 38.0534 44.3338 38.4798C44.243 38.5035 44.1522 38.5311 44.0614 38.5548C44.0377 38.5627 44.014 38.5706 43.9903 38.5745C43.8995 38.6021 43.8127 38.6298 43.7259 38.6614C43.7219 38.6614 43.714 38.6614 43.7061 38.6693C43.6311 38.6929 43.5601 38.7206 43.4851 38.7482C43.4732 38.7482 43.4614 38.7561 43.4495 38.76C43.4298 38.764 43.4101 38.7719 43.3903 38.7837C43.3035 38.8153 43.2166 38.8508 43.1298 38.8903C43.0785 38.914 43.0311 38.9337 42.9877 38.9535C42.9403 38.9772 42.8929 39.0008 42.8456 39.0245C42.7982 39.0482 42.7508 39.0679 42.7074 39.0956C42.6127 39.1469 42.5219 39.1982 42.4311 39.2574C42.3403 39.3127 42.2534 39.3719 42.1666 39.4351C42.1469 39.4509 42.1232 39.4666 42.1034 39.4824C42.0798 39.4982 42.06 39.514 42.0403 39.5298C41.9495 39.5969 41.8626 39.668 41.7837 39.743C41.7442 39.7824 41.7047 39.818 41.6692 39.8574C41.614 39.9127 41.5587 39.9719 41.5113 40.0311C41.4876 40.0548 41.4679 40.0824 41.4482 40.1061C41.4245 40.1298 41.4047 40.1575 41.385 40.1851C41.3653 40.2127 41.3455 40.2364 41.3258 40.268C41.3061 40.2917 41.2903 40.3193 41.2705 40.3509C41.235 40.4022 41.2074 40.4535 41.1758 40.5127C41.1758 40.5127 41.1718 40.5246 41.1679 40.5246C41.16 40.5364 41.156 40.5443 41.156 40.5522C41.1363 40.5877 41.1205 40.6233 41.1008 40.6548C41.081 40.7022 41.0574 40.7535 41.0376 40.8009C41.0337 40.8127 41.0258 40.8285 41.0218 40.8404C41.0218 40.8404 41.0218 40.8404 41.0218 40.8483C41.006 40.8838 40.9942 40.9233 40.9824 40.9627C40.9824 40.9667 40.9784 40.9746 40.9745 40.9785C40.9745 40.9864 40.9745 40.9904 40.9705 40.9983C40.9508 41.0496 40.9389 41.1048 40.9231 41.1601C40.9153 41.1917 40.9074 41.2193 40.8995 41.247C40.8955 41.2785 40.8876 41.3062 40.8837 41.3377C40.8758 41.3772 40.8679 41.4167 40.8639 41.4601C40.86 41.4877 40.856 41.5114 40.8521 41.543C40.8442 41.5983 40.8402 41.6535 40.8363 41.7088C40.8126 42.1233 40.8008 42.5457 40.86 42.9523C40.8718 43.0352 40.8876 43.1181 40.9074 43.2009C40.9074 43.2128 40.9074 43.2246 40.9113 43.2365C40.9271 43.3115 40.9468 43.3825 40.9626 43.4536C40.9705 43.4773 40.9745 43.5049 40.9863 43.5325C41.006 43.5996 41.0258 43.6707 41.0495 43.7378C41.0732 43.8128 41.1008 43.8878 41.1324 43.9628C41.1363 43.9746 41.1442 43.9904 41.1482 44.0023C41.1482 44.0102 41.156 44.0141 41.156 44.022C41.1797 44.0852 41.2074 44.1483 41.2389 44.2076C41.3139 44.3576 41.3968 44.5036 41.4876 44.6378C41.5113 44.6734 41.539 44.7089 41.5666 44.7444C41.5705 44.7523 41.5784 44.7563 41.5824 44.7681C41.5824 44.7681 41.5942 44.7839 41.6021 44.7918C41.6179 44.8155 41.6376 44.8391 41.6534 44.8589C41.689 44.9023 41.7245 44.9457 41.764 44.9852C41.7797 45.0049 41.7995 45.0286 41.8192 45.0484C41.839 45.0681 41.8587 45.0878 41.8784 45.1076C41.9061 45.1392 41.9337 45.1668 41.9653 45.1944C41.9969 45.226 42.0324 45.2536 42.0679 45.2813C42.0719 45.2813 42.0798 45.2892 42.0837 45.2931C42.0916 45.2931 42.0955 45.3049 42.0995 45.3049C42.1153 45.3168 42.1271 45.3286 42.139 45.3365C42.1508 45.3484 42.1666 45.3602 42.1784 45.3721C42.1784 45.3721 42.1863 45.3799 42.1903 45.3839C42.2298 45.4115 42.2692 45.4431 42.3087 45.4707C42.3166 45.4707 42.3205 45.4786 42.3284 45.4826C42.3442 45.4944 42.364 45.5063 42.3837 45.5221C42.3916 45.5221 42.3956 45.53 42.3995 45.5339C42.4429 45.5655 42.4863 45.5931 42.5337 45.6168C42.5377 45.6168 42.5416 45.6168 42.5456 45.6207C42.5653 45.6326 42.5811 45.6444 42.6008 45.6523C42.6087 45.6523 42.6166 45.6602 42.6245 45.6642C42.6561 45.6839 42.6916 45.7036 42.7232 45.7155L42.7429 45.7273C42.7429 45.7273 42.7429 45.7273 42.7469 45.7273C42.7785 45.7431 42.814 45.7629 42.8495 45.7786C42.8495 45.7786 42.8495 45.7786 42.8535 45.7786C42.9127 45.8063 42.9758 45.8379 43.039 45.8615C43.0469 45.8615 43.0508 45.8655 43.0587 45.8694C43.11 45.8931 43.1614 45.9129 43.2206 45.9286C43.2206 45.9286 43.2443 45.9405 43.26 45.9405H43.2679C43.2798 45.9484 43.2956 45.9523 43.3114 45.9563C44.6496 46.4102 45.968 46.2997 47.2233 45.6207C48.1194 45.1352 48.8339 44.4483 49.4299 43.6273C49.5089 43.5167 49.5563 43.3588 49.7457 43.3233C49.7536 43.5128 49.7615 43.6786 49.7773 43.8444C49.8642 44.8865 50.5273 45.7707 51.526 46.0589C51.5576 46.0668 51.5932 46.0787 51.6287 46.0865C51.6642 46.0944 51.6997 46.1023 51.7353 46.1102C51.8063 46.126 51.8774 46.1379 51.9524 46.1497C51.9761 46.1497 52.0037 46.1576 52.0274 46.1615C52.0511 46.1615 52.0787 46.1694 52.1063 46.1734C52.1576 46.1773 52.205 46.1813 52.2563 46.1852C52.3313 46.1892 52.4063 46.1931 52.4813 46.1971C52.5524 46.1971 52.6195 46.1971 52.6866 46.1971C52.7537 46.1971 52.8169 46.1971 52.88 46.1971C52.9392 46.1971 52.9985 46.1931 53.0577 46.1852C53.1011 46.1852 53.1445 46.1773 53.1879 46.1734C53.2748 46.1615 53.3577 46.1497 53.4406 46.1339C53.48 46.126 53.5235 46.1181 53.5629 46.1102C53.6182 46.0984 53.6695 46.0826 53.7208 46.0668C53.7248 46.0668 53.7327 46.0668 53.7327 46.0668C53.9222 46.0115 54.1037 45.9365 54.2735 45.8418C54.2853 45.8339 54.2972 45.83 54.313 45.8221C54.3603 45.7984 54.4038 45.7668 54.4511 45.7392C54.4945 45.7115 54.538 45.6839 54.5814 45.6523C54.6011 45.6405 54.6209 45.6286 54.6367 45.6129C54.6524 45.601 54.6722 45.5892 54.688 45.5734C54.8024 45.4865 54.913 45.3878 55.0156 45.2852C55.0669 45.2339 55.1143 45.1826 55.1656 45.1234C55.2682 45.0089 55.359 44.8826 55.4459 44.7523C55.4893 44.6891 55.5327 44.6181 55.5722 44.551C55.6077 44.4878 55.6393 44.4247 55.6709 44.3615C55.6709 44.3615 55.6827 44.3378 55.6906 44.326C55.6906 44.326 55.6906 44.3141 55.6985 44.3141C55.7301 44.251 55.7617 44.1878 55.7893 44.1207C55.8012 44.097 55.809 44.0773 55.813 44.0575C55.8248 44.026 55.8248 43.9944 55.8209 43.9707L55.8091 43.9825ZM49.4457 43.1812C49.1418 43.6154 48.7865 44.0023 48.3562 44.3141C47.6536 44.8234 46.8838 45.0049 46.0312 44.8155C45.5219 44.701 45.1193 44.4207 44.8193 43.9983C44.5667 43.6431 44.4009 43.2523 44.318 42.8259C44.1917 42.1549 44.1364 41.4838 44.2272 40.8009C44.3259 40.0114 44.689 39.3916 45.3404 38.9337C45.9246 38.5232 46.5878 38.2666 47.2628 38.0574C47.9931 37.8363 48.7352 37.6429 49.4694 37.4416C49.5207 37.4258 49.5721 37.4297 49.6707 37.4179V37.8442C49.6707 39.3956 49.6707 40.9469 49.6747 42.4983C49.6747 42.7628 49.6036 42.9759 49.4497 43.1891L49.4457 43.1812Z" fill="black"/>
<path d="M63.0885 45.5138V45.8652C61.1227 45.8691 59.1608 45.8691 57.1949 45.8652V45.5257C57.3607 45.5099 57.5265 45.4941 57.6923 45.4743C57.8581 45.4546 58.02 45.423 58.1779 45.3757C58.4463 45.2967 58.5963 45.1151 58.6081 44.8309C58.6121 44.6927 58.616 44.5546 58.616 44.4164C58.616 38.3057 58.616 32.1911 58.616 26.0765C58.616 25.9107 58.616 25.7449 58.6042 25.5791C58.5884 25.2791 58.4344 25.0778 58.1463 25.0107C57.9213 24.9554 57.6844 24.9238 57.4515 24.908C57.3015 24.8962 57.1476 24.8883 56.9976 24.8804V24.5686C57.1752 24.5607 57.3489 24.5488 57.5265 24.5409C58.8016 24.4738 60.0805 24.4107 61.3595 24.3436C61.4858 24.3396 61.6043 24.3436 61.77 24.3436C61.7819 24.4699 61.7977 24.5883 61.7977 24.7067C61.7977 31.0424 61.7898 37.3741 61.7898 43.7098C61.7898 44.0256 61.7898 44.3454 61.7977 44.6651C61.8174 45.1783 61.924 45.3322 62.4372 45.4349C62.6503 45.4783 62.8714 45.502 63.0925 45.5257L63.0885 45.5138Z" fill="black"/>
<path d="M85.1664 33.7064C85.1664 37.1881 85.1585 38.9684 85.1743 42.4461C85.1743 42.8843 85.2532 43.3343 85.3795 43.7527C85.6124 44.5067 86.173 44.8896 86.9546 44.9725C88.048 45.0909 88.8454 44.6527 89.3744 43.7093C89.5007 43.4803 89.5994 43.2317 89.7138 42.9948C89.7691 42.8764 89.8283 42.758 89.8915 42.6198C90.0967 42.7106 90.1007 42.8053 90.0573 42.9277C89.8244 43.5988 89.5559 44.2501 89.1178 44.8185C88.5612 45.5449 87.8348 45.9988 86.9309 46.1528C86.1966 46.2791 85.4585 46.2791 84.7321 46.1015C83.465 45.7896 82.6518 44.9804 82.2571 43.7488C82.0558 43.1211 81.9887 42.4777 81.9887 41.8224C81.9887 38.6171 81.9887 35.4157 81.9887 32.2143V31.6893C81.815 31.6774 81.6847 31.6616 81.5465 31.6616C81.1834 31.6616 80.8202 31.6616 80.457 31.6616V31.3064C80.6465 31.3064 81.7992 31.3024 81.9926 31.3064L82.3676 26.1233C82.6676 25.997 84.74 25.9852 85.1585 26.1115V31.3103H87.5822V31.6695C86.7217 31.8985 86.1414 32.0445 85.1585 32.2695V33.7104L85.1664 33.7064Z" fill="black"/>
<path d="M125.514 41.0852C125.403 39.7983 124.775 38.8352 123.678 38.1838C123.216 37.9115 122.723 37.6628 122.214 37.493C121.25 37.1772 120.267 36.9206 119.292 36.6443C118.649 36.4627 118.013 36.2575 117.441 35.9061C116.995 35.6338 116.604 35.2943 116.43 34.7851C116.016 33.5811 116.502 32.2982 117.595 31.7139C118.199 31.3942 118.85 31.2876 119.533 31.3547C120.631 31.4652 121.546 31.9587 122.332 32.7047C123.208 33.5377 123.844 34.5443 124.404 35.6022C124.475 35.7364 124.543 35.8746 124.618 36.0088C124.677 36.1154 124.76 36.1785 124.937 36.0759C124.835 34.4574 124.732 32.8153 124.625 31.1731C124.625 31.1139 124.566 31.0586 124.515 30.96C123.982 31.2402 123.721 31.785 123.267 32.1047C123.232 32.0929 123.2 32.0929 123.181 32.0771C122.289 31.3981 121.254 31.106 120.153 31.0192C118.811 30.9165 117.559 31.1652 116.419 31.9231C114.098 33.4666 113.778 37.3233 116.663 38.8431C117.382 39.222 118.136 39.4944 118.913 39.7076C119.865 39.972 120.816 40.2326 121.752 40.5405C122.194 40.6865 122.616 40.9234 123.015 41.1642C123.406 41.401 123.686 41.7602 123.8 42.2024C124.231 43.8603 123.41 45.3169 121.787 45.688C120.386 46.0077 119.115 45.6643 117.974 44.8077C117.291 44.2945 116.723 43.6629 116.249 42.9563C115.811 42.2971 115.428 41.6063 115.013 40.9313C114.934 40.7971 114.899 40.6076 114.678 40.6234C114.579 40.9747 114.879 45.6248 115.041 46.0709C115.171 45.988 115.305 45.9248 115.412 45.8301C115.696 45.5853 115.965 45.3209 116.241 45.0722C116.32 45.0011 116.415 44.9458 116.494 44.8906C116.569 44.934 116.616 44.9616 116.663 44.9932C118.377 46.1182 120.248 46.3827 122.214 45.9367C123.528 45.6406 124.519 44.8629 125.099 43.6234C125.478 42.8142 125.585 41.9576 125.51 41.0694L125.514 41.0852Z" fill="black"/>
<path d="M109.072 31.2477C107.912 30.8766 106.716 30.8056 105.528 31.0464C102.816 31.5872 101.027 33.2372 100.029 35.7597C99.4525 37.2123 99.3656 38.7321 99.6261 40.2637C99.8906 41.823 100.566 43.1967 101.718 44.2941C103.499 45.9876 105.654 46.5441 108.042 46.1099C109.846 45.7823 111.18 44.7599 111.974 43.0388C111.725 42.8691 111.654 43.0388 111.563 43.177C110.73 44.4994 109.562 45.277 107.975 45.3402C106.112 45.4191 104.675 44.7046 103.791 43.0191C103.258 42.0046 103.033 40.9072 102.958 39.7821C102.859 38.3532 102.887 36.9281 103.12 35.511C103.281 34.5202 103.534 33.557 104.079 32.6964C104.651 31.7964 105.453 31.2674 106.534 31.1885C107.486 31.1174 108.188 31.5043 108.595 32.3609C108.678 32.5346 108.761 32.7162 108.792 32.9056C108.895 33.5057 108.99 34.1057 109.053 34.7096C109.088 35.061 109.061 35.4241 109.061 35.8386C110.119 35.6649 111.113 35.4991 112.076 35.3412C112.1 35.2544 112.116 35.2268 112.116 35.2031C112.017 33.2846 110.912 31.8398 109.072 31.2517V31.2477Z" fill="black"/>
<path d="M94.7904 29.8194C95.9431 29.855 96.7721 29.0734 96.7918 27.9444C96.8115 26.8588 96.0299 26.0733 94.9049 26.0417C93.8233 26.0141 92.9351 26.8075 92.9312 27.8694C92.9272 29.1484 93.8628 29.7879 94.7904 29.8194Z" fill="black"/>
<path d="M97.5411 45.5106V45.8698C95.5753 45.8698 93.6095 45.8698 91.6515 45.8698V45.5303C91.8213 45.5146 91.991 45.4988 92.1607 45.479C92.2436 45.4711 92.3265 45.4632 92.4094 45.4514C92.9858 45.3369 93.1397 45.1672 93.1397 44.579C93.1397 40.5723 93.1397 36.5696 93.1397 32.5629C93.1397 31.9076 92.9858 31.73 92.3305 31.6471C92.0226 31.6116 91.7147 31.5958 91.4028 31.576V31.2918C93.0134 31.201 94.6279 31.1142 96.274 31.0273C96.2819 31.1773 96.2937 31.3116 96.2937 31.4458V44.3343C96.2937 44.4172 96.2937 44.5001 96.2937 44.583C96.2977 45.1948 96.4437 45.3685 97.0517 45.4593C97.2135 45.483 97.3793 45.4988 97.549 45.5146L97.5411 45.5106Z" fill="black"/>
<path d="M2.13951 44.5155C2.13951 44.5155 2.13951 44.5115 2.14346 44.5076C2.56584 43.8957 3.07112 43.2602 3.68298 42.6483C3.93956 42.3878 4.22378 42.1352 4.51589 41.8865L9.76997 29.1993L12.9477 37.7416C13.1964 37.7258 13.4372 37.6943 13.6819 37.6429C14.5306 37.4653 15.5096 37.1534 16.2399 36.814C14.8227 33.2257 13.4095 29.6414 11.9924 26.0571C11.7634 25.4808 11.5305 24.9045 11.3016 24.3281H10.3068C10.2595 24.4268 10.22 24.5097 10.1845 24.5966C8.69231 28.2953 7.20412 31.9902 5.71197 35.6889C5.48302 36.2653 5.24617 36.8416 5.01722 37.414C4.98169 37.5008 4.95011 37.5837 4.91458 37.6706C4.583 38.4877 3.75008 40.3785 2.95269 42.1746C2.26978 43.7102 1.6145 45.1747 1.31055 45.8655C1.31449 45.8576 1.31844 45.8497 1.32239 45.8418C1.49213 45.526 1.6895 45.1944 1.91451 44.8471C1.98951 44.7365 2.06451 44.626 2.13557 44.5155H2.13951Z" fill="black"/>
<path d="M19.2954 44.4481C19.173 44.1994 19.0625 43.9468 18.9598 43.6862C18.4466 42.3875 17.9335 41.0848 17.4203 39.7861C17.3611 39.8256 17.3019 39.8651 17.2427 39.9046C16.4019 40.4493 15.4189 40.8796 14.2505 41.2191L15.3676 44.2191C15.4268 44.3731 15.4821 44.531 15.5137 44.6968C15.5689 44.9928 15.4782 45.1863 15.19 45.2929C14.9768 45.3797 14.74 45.4389 14.511 45.4665V45.8613C16.4769 45.8613 18.4348 45.8613 20.4006 45.8613V45.3876C19.9191 45.2336 19.544 44.9297 19.3032 44.4441L19.2954 44.4481Z" fill="black"/>
<path d="M16.2041 37.7365C15.3317 38.0444 14.262 38.3287 12.8843 38.6247C12.1382 38.7866 11.3014 38.9524 10.3619 39.13C7.87495 39.5958 5.97227 40.6537 4.5196 41.8853C4.22354 42.134 3.94327 42.3867 3.68668 42.6472C3.07483 43.263 2.56955 43.8946 2.14717 44.5065C2.14717 44.5065 2.14717 44.5104 2.14322 44.5144C2.07217 44.6249 1.99717 44.7354 1.92217 44.8459C1.69716 45.1933 1.49979 45.5249 1.33005 45.8407C1.14846 46.1762 0.994511 46.4881 0.868192 46.7684C0.501077 47.5815 0.351074 48.1184 0.351074 48.1184C0.351074 48.1184 0.726083 47.5657 1.41294 46.7684C1.95769 46.1328 2.69982 45.3433 3.60774 44.5538C5.37225 43.0143 7.75653 41.4748 10.5 41.1037C11.6961 40.9419 12.7145 40.7485 13.5948 40.5156C14.9172 40.1682 15.9317 39.734 16.7804 39.1853C18.7858 37.8905 19.8674 35.9562 21.8411 33.0391C19.7174 35.5812 18.9358 36.7694 16.2041 37.7326V37.7365Z" fill="#F58E1D"/>
<path d="M74.5995 31.3067V31.6225C74.5995 31.6225 74.5995 31.6225 74.6034 31.6225C75.4166 31.8396 76.0126 32.5778 76.0126 33.458C76.0126 33.6909 75.9771 33.916 75.8982 34.1212L72.8507 41.8306C71.7652 39.2727 70.6836 36.7108 69.602 34.1489L69.5901 34.1212C69.4559 33.8094 69.3256 33.5015 69.1954 33.1896C69.1519 33.083 69.1085 32.9765 69.0691 32.862L68.4256 31.3027C66.9177 31.3027 65.4097 31.3027 63.9058 31.3027V31.5554C64.5808 31.6264 65.0861 31.9225 65.3387 32.5817C65.3821 32.7001 65.4453 32.8067 65.5005 32.9212C67.4387 37.0345 69.373 41.1477 71.3073 45.2649C71.3388 45.336 71.3744 45.4031 71.4138 45.4741L70.0954 48.8058C69.827 49.5242 69.1283 50.0335 68.3151 50.0374C68.3111 50.0374 68.3032 50.0374 68.2993 50.0374C68.2796 50.0374 68.2638 50.0374 68.244 50.0374C67.5374 49.9861 66.9019 49.7177 66.3019 49.3348C66.1874 49.2637 66.0769 49.1887 65.915 49.09C65.7255 49.9703 65.5479 50.8032 65.3624 51.6796C65.7374 51.7704 66.065 51.869 66.4045 51.9243C67.9282 52.1809 69.2269 51.7901 70.1586 50.5111C70.4822 50.0611 70.7625 49.5795 70.9954 49.0782C71.3152 48.3992 71.5678 47.6966 71.8441 46.9979C71.9428 46.7492 72.0415 46.4965 72.1441 46.2478L77.2206 33.7146C77.3587 33.4541 77.5008 33.1936 77.6469 32.937C77.9666 32.3843 78.4167 31.9856 78.9851 31.7527V31.3027C77.5245 31.3027 76.064 31.3027 74.5995 31.3027V31.3067Z" fill="black"/>
<path d="M129.623 31.5954H128.51V30.9678H131.435V31.5954H130.322V34.7139H129.623V31.5954Z" fill="black"/>
<path d="M131.853 30.9678H132.729L133.819 33.7665L134.908 30.9678H135.785V34.7139H135.086V32.1994H135.058L134.083 34.7139H133.55L132.572 32.1994H132.552V34.7139H131.849V30.9678H131.853Z" fill="black"/>
</g>
<defs>
<clipPath id="clip0_2647_3683">
<rect width="135.785" height="52" fill="white"/>
</clipPath>
</defs>
</svg>
