<svg width="50" height="50" viewBox="0 0 50 50" fill="none" xmlns="http://www.w3.org/2000/svg">
<path fill-rule="evenodd" clip-rule="evenodd" d="M31.2505 1.5625C31.9799 1.5625 32.6124 2.06724 32.7741 2.77855L33.6386 6.58042C34.0384 8.33891 35.4116 9.71203 37.1701 10.1119L40.972 10.9764C41.6832 11.1381 42.188 11.7705 42.188 12.5C42.188 13.2295 41.6832 13.8619 40.972 14.0236L37.1701 14.8881C37.0292 14.9202 36.8909 14.9584 36.7552 15.0027C38.9109 17.253 40.8058 19.5976 42.4077 21.9552C43.1755 20.4601 43.7974 18.9958 44.2661 17.5899C45.9773 12.4563 45.5138 8.60047 43.457 6.54355C42.8467 5.93335 42.8467 4.94403 43.457 4.33384C44.0671 3.72364 45.0564 3.72364 45.6666 4.33384C49.0114 7.67863 49.0594 13.0921 47.2307 18.5781C46.5377 20.657 45.5559 22.8191 44.3107 25C45.5559 27.1809 46.5377 29.343 47.2307 31.4219C49.0594 36.9079 49.0114 42.3214 45.6666 45.6662C42.3219 49.0109 36.9084 49.0589 31.4223 47.2302C29.3434 46.5373 27.1813 45.5554 25.0005 44.3102C22.8196 45.5554 20.6575 46.5373 18.5786 47.2302C13.0926 49.0589 7.67911 49.0109 4.33431 45.6662C2.30985 43.6417 1.49315 40.8594 1.5693 37.7619C1.59286 36.8038 2.53294 36.1767 3.45868 36.4248C4.20678 36.6252 4.68713 37.3385 4.68647 38.113C4.68446 40.4389 5.34228 42.2547 6.54402 43.4565C8.60094 45.5134 12.4567 45.9768 17.5904 44.2656C18.9963 43.797 20.4606 43.175 21.9557 42.4073C19.2861 40.5933 16.6333 38.4038 14.115 35.8855C11.5966 33.3672 9.40719 30.7144 7.59321 28.0448C7.10921 28.9873 6.68316 29.9176 6.31695 30.8287C6.00945 31.5938 5.18747 32.0352 4.39106 31.8217C3.51811 31.5878 3.0204 30.665 3.35299 29.8247C3.97832 28.2448 4.76094 26.6277 5.69021 25C4.44506 22.8191 3.46321 20.657 2.77026 18.5781C0.941584 13.0921 0.989521 7.67863 4.33432 4.33384C7.67911 0.989047 13.0926 0.941102 18.5786 2.76978C21.7309 3.82054 25.0746 5.53555 28.3848 7.82562C28.5995 7.4412 28.7617 7.02302 28.8623 6.58042L29.7269 2.77855C29.8886 2.06724 30.521 1.5625 31.2505 1.5625V1.5625M33.6386 18.4196C33.7616 17.8787 33.9766 17.3745 34.2666 16.9236C36.8155 19.552 38.9627 22.2955 40.6665 25C38.8327 27.9109 36.4853 30.8668 33.6763 33.6758C30.8673 36.4848 27.9113 38.8323 25.0005 40.666C22.0896 38.8323 19.1337 36.4848 16.3247 33.6758C13.5156 30.8668 11.1682 27.9109 9.33446 25C11.1682 22.0891 13.5156 19.1332 16.3247 16.3242C16.9348 15.714 16.9348 14.7247 16.3247 14.1145C15.7145 13.5043 14.7252 13.5043 14.115 14.1145C11.5966 16.6328 9.40719 19.2856 7.59321 21.9552C6.82544 20.4601 6.20351 18.9958 5.7349 17.5899C4.02367 12.4563 4.48711 8.60047 6.54402 6.54355C8.60094 4.48663 12.4567 4.02319 17.5904 5.73441C20.2245 6.61247 23.0639 8.02875 25.927 9.93414C25.7341 10.0059 25.5351 10.0655 25.3309 10.1119L21.529 10.9764C20.8177 11.1381 20.313 11.7705 20.313 12.5Cnan nan 20.8177 13.8619 21.529 14.0236L25.3309 14.8881C27.0894 15.288 28.4625 16.6611 28.8623 18.4196L29.7269 22.2215C29.8886 22.9327 30.521 23.4375 31.2505 23.4375Cnan nan 32.6124 22.9327 32.7741 22.2215L33.6386 18.4196M31.2505 9.0925C30.5026 10.558 29.3084 11.7521 27.843 12.5C29.3084 13.2479 30.5026 14.442 31.2505 15.9075C31.9984 14.442 33.1925 13.2479 34.658 12.5C33.1925 11.7521 31.9984 10.558 31.2505 9.0925V9.0925M35.886 35.8855C38.4043 33.3672 40.5938 30.7144 42.4077 28.0448C43.1755 29.5399 43.7974 31.0042 44.2661 32.4101C45.9773 37.5437 45.5138 41.3995 43.457 43.4565C41.4 45.5134 37.5442 45.9768 32.4106 44.2656C31.0047 43.797 29.5404 43.175 28.0452 42.4073C30.7148 40.5933 33.3677 38.4038 35.886 35.8855V35.8855" fill="#007373"/>
</svg>
