<svg width="624" height="624" viewBox="0 0 624 624" fill="none" xmlns="http://www.w3.org/2000/svg">
<g filter="url(#filter0_d_1347_19060)">
<path d="M312 574C456.699 574 574 456.699 574 312C574 167.301 456.699 50 312 50C167.301 50 50 167.301 50 312C50 456.699 167.301 574 312 574Z" fill="url(#paint0_linear_1347_19060)"/>
</g>
<g clip-path="url(#clip0_1347_19060)">
<path d="M482.671 458.21C508.898 425.823 525.368 386.642 530.158 345.244C534.948 303.846 527.86 261.939 509.722 224.419C491.584 186.898 463.144 155.313 427.726 133.353C392.307 111.392 351.371 99.9624 309.698 100.399L311.998 320.002L482.671 458.21Z" fill="#E5F6FF"/>
<g clip-path="url(#clip1_1347_19060)">
<path d="M401.928 212.856C401.664 213.245 401.664 213.758 401.928 214.147C404.325 217.68 408.139 219.735 412.242 219.735C416.345 219.735 420.16 217.68 422.556 214.147C422.82 213.758 422.82 213.245 422.556 212.856C420.16 209.323 416.345 207.268 412.242 207.268C408.139 207.268 404.325 209.323 401.928 212.856ZM420.273 213.508C418.378 215.951 415.48 217.518 412.242 217.518C409.005 217.518 406.106 215.951 404.212 213.508C406.106 211.064 409.005 209.498 412.242 209.498C415.48 209.498 418.378 211.064 420.273 213.508ZM410.95 211.891C412.995 210.563 415.178 212.743 413.848 214.786C413.76 214.911 413.648 215.024 413.522 215.112C411.477 216.44 409.293 214.26 410.624 212.217C410.711 212.092 410.824 211.979 410.95 211.891ZM406.884 230.662H402.643C402.028 230.662 401.526 230.161 401.526 229.547C401.526 228.933 402.028 228.432 402.643 228.432H404.187L389.242 213.508L411.452 191.329C411.891 190.89 412.594 190.89 413.033 191.329C413.472 191.767 413.472 192.469 413.033 192.908L392.404 213.508L405.768 226.853V225.312C405.768 224.698 406.269 224.196 406.884 224.196C407.499 224.196 408.001 224.698 408.001 225.312V229.547C408.001 229.697 407.976 229.835 407.913 229.973C407.8 230.249 407.587 230.462 407.311 230.574C407.173 230.624 407.035 230.662 406.884 230.662ZM413.033 235.674C412.819 235.887 412.531 236 412.242 236C411.954 236 411.678 235.887 411.452 235.674C411.013 235.236 411.013 234.534 411.452 234.095L432.08 213.495L418.717 200.15V201.692C418.717 202.306 418.215 202.807 417.6 202.807C416.985 202.807 416.483 202.306 416.483 201.692V197.456C416.483 197.306 416.508 197.168 416.571 197.03C416.684 196.755 416.897 196.542 417.173 196.429C417.311 196.379 417.449 196.341 417.6 196.341H421.841C422.456 196.341 422.958 196.842 422.958 197.456C422.958 198.07 422.456 198.572 421.841 198.572H420.298L435.242 213.495L413.045 235.662L413.033 235.674ZM415.831 194.562C415.392 194.123 415.392 193.422 415.831 192.983L417.286 191.529C417.726 191.091 418.428 191.091 418.867 191.529C419.307 191.968 419.307 192.67 418.867 193.108L417.412 194.562C417.199 194.775 416.91 194.888 416.621 194.888C416.333 194.888 416.057 194.775 415.831 194.562ZM413.108 195.702C413.547 195.263 414.25 195.263 414.689 195.702C415.128 196.141 415.128 196.842 414.689 197.281L413.233 198.734C413.02 198.947 412.732 199.06 412.443 199.06C412.154 199.06 411.878 198.947 411.652 198.734C411.213 198.296 411.213 197.594 411.652 197.156L413.108 195.702ZM408.654 232.454C409.093 232.892 409.093 233.594 408.654 234.033L407.198 235.486C406.985 235.699 406.696 235.812 406.407 235.812C406.119 235.812 405.843 235.699 405.617 235.486C405.178 235.048 405.178 234.346 405.617 233.907L407.073 232.454C407.512 232.015 408.214 232.015 408.654 232.454ZM411.376 231.301C411.163 231.514 410.874 231.627 410.586 231.627C410.297 231.627 410.021 231.514 409.795 231.301C409.356 230.863 409.356 230.161 409.795 229.722L411.251 228.269C411.69 227.83 412.393 227.83 412.832 228.269C413.271 228.707 413.271 229.409 412.832 229.848L411.376 231.301Z" fill="url(#paint1_linear_1347_19060)"/>
<path d="M381.292 248.515H377.222V258.262H376.313V248.515H372.242V247.696H381.292V248.515ZM384.44 250.271C384.132 250.285 383.824 250.348 383.516 250.446C383.209 250.544 382.943 250.691 382.719 250.887C382.565 251.006 382.418 251.167 382.271 251.363C382.216 251.44 382.167 251.517 382.118 251.601V250.341H381.292V258.269H382.209V254.344C382.209 254.022 382.23 253.693 382.264 253.35C382.299 253.007 382.383 252.685 382.516 252.37C382.649 252.055 382.859 251.789 383.146 251.552C383.474 251.293 383.831 251.139 384.209 251.097C384.586 251.055 384.943 251.069 385.279 251.139V250.341C385.027 250.278 384.747 250.257 384.433 250.271H384.44ZM392.86 254.616C392.86 255.05 392.804 255.456 392.699 255.827C392.594 256.198 392.427 256.513 392.21 256.786C391.993 257.052 391.713 257.261 391.371 257.415C391.035 257.562 390.629 257.639 390.168 257.639C389.706 257.639 389.335 257.569 389.007 257.429C388.678 257.289 388.405 257.08 388.188 256.807C387.972 256.534 387.804 256.198 387.699 255.806C387.594 255.414 387.538 254.966 387.538 254.469V250.348H386.622V254.686C386.622 255.099 386.664 255.491 386.755 255.869C386.838 256.247 386.971 256.59 387.153 256.905C387.335 257.219 387.559 257.492 387.832 257.723C388.104 257.954 388.426 258.136 388.797 258.262C389.167 258.388 389.587 258.451 390.056 258.451C390.72 258.451 391.315 258.318 391.846 258.052C392.294 257.828 392.657 257.499 392.951 257.08V258.269H393.776V250.341H392.86V254.616ZM396.854 251.279C397.266 251.027 397.805 250.908 398.462 250.915C399.155 250.915 399.735 251.069 400.197 251.37C400.658 251.663 400.938 252.069 401.022 252.573L401.952 252.412C401.903 251.957 401.729 251.559 401.414 251.216C401.106 250.873 400.693 250.6 400.19 250.411C399.686 250.215 399.12 250.124 398.483 250.124C397.847 250.124 397.294 250.215 396.812 250.404C396.329 250.593 395.959 250.845 395.686 251.181C395.42 251.51 395.28 251.894 395.28 252.328C395.28 252.692 395.371 252.993 395.553 253.245C395.735 253.497 396.049 253.714 396.49 253.91C396.938 254.106 397.553 254.302 398.336 254.497C399.085 254.686 399.644 254.854 400.022 254.994C400.4 255.134 400.651 255.288 400.784 255.463C400.91 255.631 400.98 255.848 400.98 256.114C400.98 256.597 400.77 256.982 400.358 257.261C399.945 257.541 399.386 257.681 398.679 257.681C397.973 257.681 397.371 257.541 396.882 257.261C396.392 256.982 396.084 256.611 395.952 256.142L395.021 256.289C395.175 256.982 395.567 257.513 396.21 257.905C396.847 258.29 397.658 258.486 398.644 258.486C399.63 258.486 400.477 258.276 401.064 257.856C401.652 257.436 401.945 256.863 401.945 256.128C401.945 255.722 401.847 255.379 401.659 255.106C401.47 254.833 401.141 254.588 400.686 254.385C400.225 254.183 399.588 253.98 398.763 253.784C398.092 253.63 397.567 253.483 397.203 253.343C396.833 253.203 396.581 253.056 396.434 252.888C396.287 252.727 396.217 252.524 396.217 252.293C396.217 251.88 396.427 251.552 396.84 251.3L396.854 251.279ZM405.267 248.137H404.351V250.341H402.442V251.111H404.351V255.512C404.351 255.876 404.358 256.205 404.372 256.492C404.386 256.779 404.47 257.059 404.61 257.338C404.785 257.681 405.044 257.933 405.386 258.101C405.729 258.262 406.121 258.36 406.568 258.381C407.009 258.402 407.457 258.367 407.911 258.276V257.513C407.275 257.604 406.75 257.618 406.345 257.548C405.932 257.478 405.631 257.275 405.442 256.933C405.344 256.751 405.288 256.555 405.281 256.338C405.274 256.121 405.267 255.848 405.267 255.512V251.125H407.911V250.355H405.267V248.151V248.137ZM418.353 250.509C418.682 251.265 418.85 252.083 418.85 252.979C418.85 253.875 418.682 254.7 418.353 255.449C418.024 256.205 417.535 256.828 416.898 257.31C416.262 257.8 415.486 258.094 414.569 258.199C414.311 258.227 414.045 258.248 413.765 258.248C413.485 258.248 413.303 258.255 413.213 258.255H409.534V247.689H413.213C413.303 247.689 413.485 247.689 413.765 247.696C414.045 247.696 414.311 247.717 414.569 247.745C415.486 247.85 416.262 248.144 416.898 248.634C417.535 249.123 418.017 249.746 418.353 250.495V250.509ZM416.577 252.979C416.577 252.454 416.5 251.95 416.346 251.475C416.192 250.999 415.954 250.6 415.639 250.271C415.325 249.942 414.926 249.732 414.45 249.648C414.255 249.606 414.038 249.585 413.793 249.585C413.548 249.585 413.359 249.578 413.22 249.578H411.723V256.387H413.22C413.359 256.387 413.555 256.387 413.793 256.373C414.038 256.366 414.255 256.345 414.45 256.31C414.947 256.219 415.346 256.002 415.66 255.666C415.975 255.33 416.206 254.924 416.353 254.448C416.5 253.973 416.577 253.483 416.577 252.979ZM427.515 252.958C427.186 252.748 426.844 252.58 426.487 252.461C426.13 252.342 425.802 252.244 425.508 252.174L423.536 251.677C423.291 251.622 423.06 251.545 422.822 251.454C422.591 251.363 422.403 251.251 422.249 251.104C422.095 250.957 422.018 250.775 422.018 250.544C422.018 250.292 422.109 250.082 422.298 249.9C422.486 249.718 422.724 249.578 423.025 249.487C423.319 249.389 423.64 249.347 423.976 249.361C424.319 249.368 424.648 249.438 424.955 249.557C425.27 249.676 425.536 249.858 425.767 250.096C425.99 250.334 426.151 250.621 426.235 250.964L428.557 250.6C428.375 249.942 428.075 249.382 427.655 248.92C427.242 248.466 426.725 248.116 426.109 247.878C425.494 247.64 424.794 247.514 424.011 247.5C423.235 247.5 422.521 247.605 421.885 247.836C421.242 248.067 420.731 248.417 420.346 248.885C419.962 249.354 419.773 249.942 419.773 250.656C419.773 251.16 419.864 251.58 420.046 251.908C420.227 252.237 420.451 252.503 420.731 252.706C421.004 252.909 421.291 253.063 421.577 253.168C421.871 253.273 422.123 253.357 422.347 253.42L425.298 254.225C425.522 254.288 425.704 254.358 425.844 254.434C425.99 254.511 426.102 254.595 426.179 254.686C426.256 254.777 426.312 254.868 426.347 254.966C426.382 255.064 426.396 255.169 426.396 255.281C426.396 255.575 426.291 255.82 426.074 256.023C425.865 256.226 425.592 256.373 425.256 256.478C424.927 256.583 424.585 256.632 424.228 256.632C423.599 256.632 423.032 256.471 422.542 256.142C422.046 255.813 421.724 255.344 421.563 254.742L419.325 255.05C419.444 255.764 419.717 256.38 420.151 256.898C420.584 257.415 421.137 257.807 421.815 258.087C422.493 258.367 423.249 258.5 424.088 258.5C424.669 258.5 425.228 258.43 425.774 258.297C426.319 258.157 426.809 257.954 427.235 257.674C427.669 257.394 428.012 257.045 428.263 256.625C428.515 256.205 428.648 255.708 428.648 255.141C428.648 254.609 428.543 254.169 428.326 253.819C428.117 253.469 427.844 253.189 427.515 252.979V252.958ZM438.279 249.578C438.482 250.061 438.586 250.6 438.586 251.188C438.586 251.775 438.482 252.314 438.272 252.797C438.062 253.28 437.74 253.679 437.307 254.001C436.873 254.316 436.32 254.525 435.649 254.623C435.502 254.644 435.334 254.658 435.145 254.665C434.957 254.672 434.81 254.679 434.705 254.679H432.054V258.262H429.907V247.696H434.705C434.817 247.696 434.964 247.696 435.152 247.71C435.341 247.717 435.509 247.731 435.656 247.759C436.334 247.857 436.894 248.067 437.328 248.382C437.761 248.697 438.083 249.102 438.286 249.578H438.279ZM436.425 251.188C436.425 250.999 436.397 250.796 436.334 250.579C436.272 250.369 436.167 250.173 436.006 249.998C435.845 249.823 435.621 249.704 435.334 249.627C435.222 249.599 435.104 249.578 434.971 249.571C434.838 249.564 434.719 249.557 434.607 249.557H432.054V252.818H434.607C434.719 252.818 434.838 252.818 434.971 252.804C435.104 252.797 435.222 252.776 435.334 252.748C435.621 252.678 435.845 252.552 436.006 252.377C436.167 252.202 436.272 252.013 436.334 251.796C436.397 251.587 436.425 251.384 436.425 251.188ZM449.28 247.696L445.524 254.714L441.769 247.696H439.845V258.262H441.846V251.95L445.14 258.262H445.895L449.189 251.95V258.262H451.197V247.696H449.273H449.28Z" fill="#333333"/>
</g>
<path d="M502.187 429.808C522.437 394.732 532.594 354.739 531.534 314.251C530.474 273.763 518.238 234.357 496.179 200.389C474.12 166.421 443.097 139.215 406.541 121.779C369.984 104.342 329.318 97.3542 289.038 101.588L289.497 105.956C328.972 101.807 368.825 108.655 404.65 125.743C440.475 142.831 470.878 169.493 492.495 202.781C514.113 236.07 526.104 274.688 527.143 314.366C528.182 354.044 518.229 393.237 498.383 427.611L502.187 429.808Z" fill="#6FBE46"/>
<path d="M120.099 426.61C139.759 462.02 168.829 491.303 204.095 511.222C239.36 531.141 279.447 540.921 319.923 539.479C360.399 538.036 399.688 525.429 433.446 503.051C467.205 480.672 494.117 449.395 511.208 412.675L312.103 320.003L120.099 426.61Z" fill="#D5EFFE"/>
<g clip-path="url(#clip2_1347_19060)">
<path d="M315.84 423.562C315.401 423.123 315.401 422.422 315.84 421.983L317.297 420.529C317.736 420.091 318.44 420.091 318.879 420.529C319.319 420.968 319.319 421.67 318.879 422.108L317.422 423.562C317.209 423.775 316.92 423.888 316.631 423.888C316.342 423.888 316.066 423.775 315.84 423.562ZM311.671 426.156C311.231 426.594 311.231 427.296 311.671 427.734C311.884 427.947 312.173 428.06 312.462 428.06C312.751 428.06 313.027 427.947 313.253 427.734L314.71 426.281C315.149 425.842 315.149 425.141 314.71 424.702C314.27 424.263 313.567 424.263 313.128 424.702L311.671 426.156ZM307.075 461.441L305.618 462.895C305.178 463.333 305.178 464.035 305.618 464.474C305.831 464.687 306.12 464.8 306.409 464.8C306.698 464.8 306.974 464.687 307.2 464.474L308.657 463.02C309.096 462.582 309.096 461.88 308.657 461.441C308.217 461.003 307.514 461.003 307.075 461.441ZM312.826 458.848C313.266 458.409 313.266 457.707 312.826 457.269C312.387 456.83 311.683 456.83 311.244 457.269L309.787 458.722C309.348 459.161 309.348 459.863 309.787 460.301C310.001 460.514 310.289 460.627 310.578 460.627C310.867 460.627 311.143 460.514 311.369 460.301L312.826 458.848ZM311.131 450.515C311.131 446.706 308.029 443.611 304.211 443.611C303.596 443.611 303.094 443.109 303.094 442.495C303.094 441.881 303.596 441.38 304.211 441.38C308.029 441.38 311.131 438.285 311.131 434.476C311.131 433.862 311.633 433.361 312.248 433.361C312.864 433.361 313.366 433.862 313.366 434.476C313.366 438.285 316.468 441.38 320.286 441.38C320.901 441.38 321.403 441.881 321.403 442.495C321.403 443.109 320.901 443.611 320.286 443.611C316.468 443.611 313.366 446.706 313.366 450.515C313.366 451.129 312.864 451.63 312.248 451.63C311.633 451.63 311.131 451.129 311.131 450.515ZM312.248 446.154C313.09 444.613 314.371 443.347 315.903 442.508C314.358 441.668 313.09 440.39 312.248 438.861C311.407 440.403 310.126 441.668 308.594 442.508C310.139 443.347 311.407 444.625 312.248 446.154ZM307.313 459.562C307.589 459.449 307.803 459.236 307.916 458.96C307.966 458.822 308.004 458.685 308.004 458.534V454.299C308.004 453.685 307.502 453.184 306.886 453.184C306.271 453.184 305.769 453.685 305.769 454.299V455.84L292.394 442.495L313.04 421.908C313.479 421.469 313.479 420.767 313.04 420.329C312.6 419.89 311.897 419.89 311.457 420.329L289.242 442.495L304.199 457.419H302.654C302.039 457.419 301.536 457.92 301.536 458.534C301.536 459.148 302.039 459.649 302.654 459.649H306.899C307.049 459.649 307.188 459.624 307.326 459.562H307.313ZM320.298 427.572H321.843C322.458 427.572 322.96 427.07 322.96 426.456C322.96 425.842 322.458 425.341 321.843 425.341H317.598C317.447 425.341 317.309 425.366 317.171 425.429C316.895 425.542 316.681 425.755 316.568 426.03C316.518 426.168 316.481 426.306 316.481 426.456V430.692C316.481 431.306 316.983 431.807 317.598 431.807C318.214 431.807 318.716 431.306 318.716 430.692V429.15L332.09 442.495L311.445 463.095C311.005 463.534 311.005 464.236 311.445 464.674C311.658 464.887 311.947 465 312.236 465C312.525 465 312.801 464.887 313.027 464.674L335.242 442.508L320.286 427.584L320.298 427.572Z" fill="url(#paint2_linear_1347_19060)"/>
<path d="M293.434 477.341H289.297V487.272H288.372V477.341H284.242V476.507H293.441V477.341H293.434ZM296.633 479.123C296.32 479.138 296.007 479.202 295.695 479.302C295.382 479.401 295.112 479.551 294.884 479.751C294.728 479.872 294.579 480.036 294.429 480.236C294.372 480.314 294.323 480.392 294.273 480.478V479.195H293.434V487.272H294.365V483.273C294.365 482.945 294.387 482.61 294.422 482.26C294.458 481.911 294.543 481.583 294.678 481.262C294.813 480.948 295.026 480.67 295.318 480.428C295.652 480.164 296.015 480.007 296.398 479.965C296.782 479.922 297.145 479.936 297.486 480.007V479.195C297.23 479.131 296.946 479.109 296.626 479.123H296.633ZM305.192 483.551C305.192 483.993 305.135 484.406 305.029 484.784C304.922 485.162 304.751 485.482 304.531 485.761C304.311 486.031 304.026 486.245 303.678 486.402C303.337 486.552 302.924 486.63 302.455 486.63C301.986 486.63 301.609 486.559 301.275 486.416C300.941 486.274 300.664 486.06 300.443 485.782C300.223 485.504 300.052 485.162 299.946 484.762C299.839 484.363 299.782 483.907 299.782 483.401V479.202H298.851V483.622C298.851 484.042 298.894 484.442 298.986 484.827C299.071 485.212 299.206 485.561 299.391 485.882C299.576 486.203 299.804 486.481 300.081 486.716C300.358 486.951 300.685 487.136 301.062 487.265C301.439 487.393 301.865 487.457 302.341 487.457C303.017 487.457 303.621 487.322 304.161 487.051C304.616 486.823 304.986 486.488 305.284 486.06V487.272H306.123V479.195H305.192V483.551ZM309.251 480.157C309.671 479.901 310.218 479.779 310.886 479.786C311.59 479.786 312.18 479.943 312.649 480.25C313.118 480.549 313.403 480.963 313.488 481.476L314.434 481.312C314.384 480.849 314.206 480.442 313.886 480.093C313.573 479.744 313.154 479.466 312.642 479.273C312.13 479.074 311.555 478.981 310.908 478.981C310.261 478.981 309.699 479.074 309.209 479.266C308.718 479.459 308.341 479.715 308.064 480.057C307.794 480.392 307.652 480.785 307.652 481.227C307.652 481.597 307.744 481.904 307.929 482.16C308.114 482.417 308.434 482.638 308.882 482.838C309.337 483.037 309.962 483.237 310.758 483.436C311.519 483.629 312.088 483.8 312.472 483.943C312.855 484.085 313.111 484.242 313.246 484.42C313.374 484.591 313.445 484.812 313.445 485.083C313.445 485.575 313.232 485.967 312.813 486.252C312.393 486.538 311.825 486.68 311.107 486.68C310.389 486.68 309.777 486.538 309.28 486.252C308.782 485.967 308.469 485.589 308.334 485.112L307.389 485.262C307.545 485.967 307.943 486.509 308.597 486.908C309.244 487.3 310.069 487.5 311.071 487.5C312.073 487.5 312.934 487.286 313.531 486.858C314.128 486.431 314.427 485.846 314.427 485.098C314.427 484.684 314.327 484.335 314.135 484.057C313.943 483.779 313.609 483.529 313.147 483.322C312.678 483.116 312.031 482.909 311.192 482.709C310.51 482.552 309.976 482.403 309.607 482.26C309.23 482.118 308.974 481.968 308.825 481.797C308.675 481.633 308.604 481.426 308.604 481.191C308.604 480.77 308.818 480.435 309.237 480.179L309.251 480.157ZM317.803 476.949H316.872V479.195H314.931V479.979H316.872V484.463C316.872 484.834 316.879 485.169 316.893 485.461C316.908 485.753 316.993 486.039 317.135 486.324C317.313 486.673 317.576 486.93 317.924 487.101C318.272 487.265 318.671 487.365 319.126 487.386C319.573 487.407 320.028 487.372 320.49 487.279V486.502C319.843 486.595 319.31 486.609 318.898 486.538C318.479 486.466 318.173 486.26 317.981 485.91C317.881 485.725 317.825 485.525 317.817 485.304C317.81 485.083 317.803 484.805 317.803 484.463V479.993H320.49V479.209H317.803V476.963V476.949ZM328.132 476.5L331.658 487.265H329.412L328.673 485.019H324.322L323.59 487.265H321.343L324.869 476.5H328.125H328.132ZM328.047 483.123L326.483 478.403L324.948 483.123H328.047ZM332.384 476.5V487.265H334.566V476.5H332.384Z" fill="#333333"/>
</g>
<path d="M120.674 427.834C140.507 463.022 169.66 492.059 204.927 511.751C240.195 531.443 280.209 541.028 320.571 539.45C360.933 537.873 400.077 525.194 433.7 502.81C467.323 480.425 494.12 449.201 511.146 412.572L507.163 410.721C490.478 446.617 464.216 477.217 431.266 499.154C398.316 521.091 359.954 533.515 320.4 535.061C280.845 536.607 241.631 527.215 207.069 507.916C172.507 488.618 143.937 460.162 124.501 425.678L120.674 427.834Z" fill="#1EAEAB"/>
<path d="M311.996 100.382C273.64 100.382 235.953 110.428 202.685 129.519C169.418 148.611 141.731 176.082 122.379 209.199C103.028 242.316 92.6878 279.923 92.3876 318.278C92.0873 356.633 101.838 394.398 120.668 427.814L311.996 319.998L311.996 100.382Z" fill="#F3FDFF"/>
<g clip-path="url(#clip3_1347_19060)">
<path d="M210.84 194.562C210.401 194.123 210.401 193.422 210.84 192.983L212.297 191.529C212.736 191.091 213.44 191.091 213.879 191.529C214.319 191.968 214.319 192.67 213.879 193.108L212.422 194.562C212.209 194.775 211.92 194.888 211.631 194.888C211.342 194.888 211.066 194.775 210.84 194.562ZM206.671 197.156C206.231 197.594 206.231 198.296 206.671 198.734C206.884 198.947 207.173 199.06 207.462 199.06C207.751 199.06 208.027 198.947 208.253 198.734L209.71 197.281C210.149 196.842 210.149 196.141 209.71 195.702C209.27 195.263 208.567 195.263 208.128 195.702L206.671 197.156ZM202.075 232.441L200.618 233.895C200.178 234.333 200.178 235.035 200.618 235.474C200.831 235.687 201.12 235.8 201.409 235.8C201.698 235.8 201.974 235.687 202.2 235.474L203.657 234.02C204.096 233.582 204.096 232.88 203.657 232.441C203.217 232.003 202.514 232.003 202.075 232.441ZM207.826 229.848C208.266 229.409 208.266 228.707 207.826 228.269C207.387 227.83 206.683 227.83 206.244 228.269L204.787 229.722C204.348 230.161 204.348 230.863 204.787 231.301C205.001 231.514 205.289 231.627 205.578 231.627C205.867 231.627 206.143 231.514 206.369 231.301L207.826 229.848ZM207.575 212.393H215.964C216.579 212.393 217.081 212.894 217.081 213.508C217.081 214.122 216.579 214.623 215.964 214.623H215.298V215.738C215.298 216.352 214.796 216.853 214.18 216.853C213.565 216.853 213.063 216.352 213.063 215.738V214.623H211.28V217.079C211.28 217.693 210.777 218.194 210.162 218.194C209.547 218.194 209.044 217.693 209.044 217.079V214.623H207.575C206.872 217.768 203.268 219.836 199.714 217.843C199.086 217.493 198.558 216.954 198.207 216.327C196.022 212.393 198.835 208.383 202.577 208.383C205.026 208.383 207.073 210.1 207.588 212.393H207.575ZM204.9 215.312C206.759 212.418 203.657 209.323 200.743 211.165C200.53 211.302 200.342 211.49 200.216 211.691C198.357 214.585 201.459 217.68 204.373 215.838C204.586 215.701 204.775 215.513 204.9 215.312ZM202.313 230.562C202.589 230.449 202.803 230.236 202.916 229.96C202.966 229.822 203.004 229.685 203.004 229.534V225.299C203.004 224.685 202.502 224.184 201.886 224.184C201.271 224.184 200.769 224.685 200.769 225.299V226.84L187.394 213.495L208.04 192.908C208.479 192.469 208.479 191.767 208.04 191.329C207.6 190.89 206.897 190.89 206.457 191.329L184.242 213.495L199.199 228.419H197.654C197.039 228.419 196.536 228.92 196.536 229.534C196.536 230.148 197.039 230.649 197.654 230.649H201.899C202.049 230.649 202.188 230.624 202.326 230.562H202.313ZM215.298 198.572H216.843C217.458 198.572 217.96 198.07 217.96 197.456C217.96 196.842 217.458 196.341 216.843 196.341H212.598C212.447 196.341 212.309 196.366 212.171 196.429C211.895 196.542 211.681 196.755 211.568 197.03C211.518 197.168 211.481 197.306 211.481 197.456V201.692C211.481 202.306 211.983 202.807 212.598 202.807C213.214 202.807 213.716 202.306 213.716 201.692V200.15L227.09 213.495L206.445 234.095C206.005 234.534 206.005 235.236 206.445 235.674C206.658 235.887 206.947 236 207.236 236C207.525 236 207.801 235.887 208.027 235.674L230.242 213.508L215.286 198.584L215.298 198.572Z" fill="url(#paint3_linear_1347_19060)"/>
<path d="M172.248 248.341H168.198V258.272H167.293V248.341H163.242V247.507H172.248V248.341ZM175.38 250.123C175.074 250.138 174.768 250.202 174.461 250.302C174.155 250.401 173.891 250.551 173.668 250.751C173.515 250.872 173.369 251.036 173.223 251.236C173.167 251.314 173.118 251.392 173.069 251.478V250.195H172.248V258.272H173.16V254.273C173.16 253.945 173.181 253.61 173.216 253.26C173.25 252.911 173.334 252.583 173.466 252.262C173.598 251.948 173.807 251.67 174.093 251.428C174.42 251.164 174.775 251.007 175.15 250.965C175.526 250.922 175.881 250.936 176.215 251.007V250.195C175.965 250.131 175.686 250.109 175.373 250.123H175.38ZM183.76 254.551C183.76 254.993 183.704 255.406 183.6 255.784C183.495 256.162 183.328 256.483 183.112 256.761C182.897 257.031 182.618 257.245 182.277 257.402C181.943 257.552 181.54 257.63 181.08 257.63C180.621 257.63 180.252 257.559 179.925 257.416C179.598 257.274 179.326 257.06 179.111 256.782C178.895 256.504 178.728 256.162 178.623 255.762C178.519 255.363 178.463 254.907 178.463 254.401V250.202H177.552V254.622C177.552 255.042 177.593 255.442 177.684 255.827C177.767 256.212 177.9 256.561 178.081 256.882C178.261 257.203 178.484 257.481 178.756 257.716C179.027 257.951 179.347 258.136 179.716 258.265C180.085 258.393 180.503 258.457 180.969 258.457C181.63 258.457 182.222 258.322 182.751 258.051C183.196 257.823 183.558 257.488 183.85 257.06V258.272H184.671V250.195H183.76V254.551ZM187.734 251.157C188.144 250.901 188.68 250.779 189.335 250.786C190.024 250.786 190.601 250.943 191.061 251.25C191.52 251.549 191.798 251.963 191.882 252.476L192.808 252.312C192.759 251.849 192.585 251.442 192.272 251.093C191.965 250.744 191.555 250.466 191.054 250.273C190.553 250.074 189.989 249.981 189.355 249.981C188.722 249.981 188.172 250.074 187.692 250.266C187.212 250.459 186.843 250.715 186.572 251.057C186.307 251.392 186.168 251.785 186.168 252.227C186.168 252.597 186.258 252.904 186.439 253.16C186.62 253.417 186.933 253.638 187.372 253.838C187.817 254.037 188.43 254.237 189.209 254.436C189.954 254.629 190.511 254.8 190.887 254.943C191.262 255.085 191.513 255.242 191.645 255.42C191.771 255.591 191.84 255.812 191.84 256.083C191.84 256.575 191.631 256.967 191.221 257.252C190.81 257.538 190.253 257.68 189.55 257.68C188.847 257.68 188.249 257.538 187.762 257.252C187.274 256.967 186.968 256.589 186.836 256.112L185.91 256.262C186.063 256.967 186.453 257.509 187.094 257.908C187.727 258.3 188.534 258.5 189.516 258.5C190.497 258.5 191.339 258.286 191.924 257.858C192.508 257.431 192.801 256.846 192.801 256.098C192.801 255.684 192.703 255.335 192.515 255.057C192.327 254.779 192 254.529 191.548 254.322C191.088 254.116 190.455 253.909 189.634 253.709C188.966 253.552 188.444 253.403 188.082 253.26C187.713 253.118 187.462 252.968 187.316 252.797C187.17 252.633 187.1 252.426 187.1 252.191C187.1 251.77 187.309 251.435 187.72 251.179L187.734 251.157ZM196.106 247.949H195.195V250.195H193.295V250.979H195.195V255.463C195.195 255.834 195.202 256.169 195.216 256.461C195.23 256.753 195.313 257.039 195.452 257.324C195.626 257.673 195.884 257.93 196.225 258.101C196.566 258.265 196.956 258.365 197.401 258.386C197.839 258.407 198.285 258.372 198.737 258.279V257.502C198.104 257.595 197.582 257.609 197.178 257.538C196.768 257.466 196.468 257.26 196.28 256.91C196.183 256.725 196.127 256.525 196.12 256.304C196.113 256.083 196.106 255.805 196.106 255.463V250.993H198.737V250.209H196.106V247.963V247.949ZM206.219 247.5L209.671 258.265H207.472L206.748 256.019H202.489L201.772 258.265H199.572L203.025 247.5H206.212H206.219ZM206.129 254.123L204.597 249.403L203.094 254.123H206.129ZM212.852 252.177C213.137 251.97 213.506 251.863 213.958 251.863C214.348 251.863 214.703 251.977 215.016 252.212C215.33 252.448 215.545 252.775 215.671 253.189L217.807 252.654C217.619 251.82 217.188 251.164 216.506 250.687C215.831 250.209 214.988 249.967 213.986 249.967C213.123 249.967 212.372 250.152 211.738 250.523C211.105 250.893 210.618 251.4 210.27 252.041C209.922 252.683 209.748 253.417 209.748 254.23C209.748 255.042 209.915 255.762 210.249 256.404C210.583 257.046 211.063 257.559 211.69 257.93C212.316 258.3 213.068 258.493 213.951 258.493C214.933 258.493 215.761 258.265 216.429 257.794C217.097 257.331 217.557 256.668 217.793 255.812L215.608 255.378C215.483 255.77 215.295 256.062 215.044 256.276C214.794 256.483 214.425 256.589 213.944 256.589C213.304 256.589 212.817 256.368 212.49 255.934C212.163 255.499 212.003 254.928 212.003 254.223C212.003 253.773 212.072 253.374 212.205 253.018C212.344 252.661 212.553 252.376 212.838 252.169L212.852 252.177ZM221.531 252.177C221.816 251.97 222.185 251.863 222.637 251.863C223.027 251.863 223.382 251.977 223.695 252.212C224.008 252.448 224.224 252.775 224.349 253.189L226.486 252.654C226.298 251.82 225.867 251.164 225.185 250.687C224.51 250.209 223.667 249.967 222.665 249.967C221.802 249.967 221.05 250.152 220.417 250.523C219.784 250.893 219.297 251.4 218.949 252.041C218.601 252.683 218.427 253.417 218.427 254.23C218.427 255.042 218.594 255.762 218.928 256.404C219.262 257.046 219.742 257.559 220.368 257.93C220.995 258.3 221.746 258.493 222.63 258.493C223.612 258.493 224.44 258.265 225.108 257.794C225.776 257.331 226.236 256.668 226.472 255.812L224.287 255.378C224.162 255.77 223.974 256.062 223.723 256.276C223.472 256.483 223.104 256.589 222.623 256.589C221.983 256.589 221.496 256.368 221.169 255.934C220.842 255.499 220.682 254.928 220.682 254.223C220.682 253.773 220.751 253.374 220.883 253.018C221.023 252.661 221.231 252.376 221.517 252.169L221.531 252.177ZM234.97 252.248C235.269 252.968 235.374 253.823 235.283 254.8H229.333C229.402 255.285 229.555 255.677 229.806 255.976C230.147 256.39 230.655 256.597 231.316 256.597C231.734 256.597 232.096 256.511 232.395 256.333C232.694 256.162 232.924 255.905 233.077 255.577L235.214 256.162C234.894 256.896 234.392 257.473 233.703 257.88C233.014 258.286 232.263 258.493 231.448 258.493C230.578 258.493 229.813 258.315 229.152 257.958C228.491 257.602 227.969 257.11 227.6 256.483C227.224 255.855 227.036 255.142 227.036 254.33C227.036 253.446 227.217 252.683 227.586 252.027C227.955 251.371 228.456 250.865 229.103 250.508C229.743 250.145 230.488 249.967 231.323 249.967C232.214 249.967 232.966 250.166 233.592 250.565C234.218 250.965 234.678 251.528 234.977 252.248H234.97ZM229.806 252.362C229.611 252.604 229.472 252.911 229.388 253.289H233.119C233.056 252.854 232.938 252.512 232.757 252.276C232.485 251.913 232.033 251.735 231.414 251.735C230.683 251.735 230.154 251.948 229.806 252.369V252.362ZM242.16 253.994C241.77 253.781 241.255 253.595 240.608 253.438C239.946 253.282 239.459 253.146 239.139 253.046C238.819 252.947 238.603 252.847 238.506 252.754C238.401 252.661 238.353 252.54 238.353 252.405C238.353 252.169 238.471 251.991 238.708 251.87C238.944 251.749 239.264 251.699 239.654 251.72C240.058 251.749 240.378 251.856 240.615 252.027C240.851 252.205 240.983 252.44 241.025 252.74L243.211 252.369C243.134 251.877 242.939 251.457 242.626 251.1C242.313 250.744 241.895 250.466 241.38 250.273C240.865 250.081 240.28 249.981 239.612 249.981C238.944 249.981 238.332 250.088 237.824 250.287C237.316 250.494 236.926 250.786 236.647 251.171C236.369 251.549 236.23 252.006 236.23 252.519C236.23 252.932 236.32 253.282 236.501 253.574C236.682 253.866 236.982 254.116 237.399 254.322C237.81 254.529 238.367 254.722 239.056 254.893C239.668 255.05 240.12 255.171 240.413 255.263C240.705 255.356 240.893 255.456 240.976 255.549C241.06 255.648 241.102 255.777 241.102 255.934C241.102 256.19 240.997 256.383 240.789 256.525C240.58 256.668 240.28 256.739 239.891 256.739C239.417 256.739 239.035 256.632 238.728 256.418C238.422 256.204 238.227 255.905 238.137 255.527L235.951 255.841C236.091 256.682 236.494 257.338 237.149 257.794C237.803 258.258 238.666 258.486 239.738 258.486C240.809 258.486 241.714 258.25 242.341 257.773C242.967 257.302 243.28 256.646 243.28 255.82C243.28 255.399 243.19 255.042 243.016 254.75C242.835 254.451 242.556 254.201 242.167 253.987L242.16 253.994ZM250.971 254.757C250.79 254.458 250.511 254.208 250.122 253.994C249.732 253.781 249.217 253.595 248.57 253.438C247.908 253.282 247.421 253.146 247.101 253.046C246.781 252.947 246.565 252.847 246.468 252.754C246.363 252.661 246.315 252.54 246.315 252.405C246.315 252.169 246.433 251.991 246.67 251.87C246.906 251.749 247.226 251.699 247.616 251.72C248.02 251.749 248.34 251.856 248.577 252.027C248.813 252.205 248.945 252.44 248.987 252.74L251.173 252.369C251.096 251.877 250.901 251.457 250.588 251.1C250.275 250.744 249.857 250.466 249.342 250.273C248.827 250.081 248.243 249.981 247.574 249.981C246.906 249.981 246.294 250.088 245.786 250.287C245.278 250.494 244.888 250.786 244.609 251.171C244.331 251.549 244.192 252.006 244.192 252.519C244.192 252.932 244.282 253.282 244.463 253.574C244.644 253.866 244.944 254.116 245.361 254.322C245.772 254.529 246.329 254.722 247.018 254.893C247.63 255.05 248.082 255.171 248.375 255.263C248.667 255.356 248.855 255.456 248.938 255.549C249.022 255.648 249.064 255.777 249.064 255.934C249.064 256.19 248.959 256.383 248.751 256.525C248.542 256.668 248.243 256.739 247.853 256.739C247.379 256.739 246.997 256.632 246.69 256.418C246.384 256.204 246.189 255.905 246.099 255.527L243.913 255.841C244.053 256.682 244.456 257.338 245.111 257.794C245.765 258.258 246.628 258.486 247.7 258.486C248.771 258.486 249.676 258.25 250.303 257.773C250.929 257.302 251.242 256.646 251.242 255.82C251.242 255.399 251.152 255.042 250.978 254.75L250.971 254.757Z" fill="#333333"/>
</g>
<path d="M309.94 100.395C272.362 100.748 235.503 110.737 202.89 129.408C170.277 148.079 143 174.806 123.669 207.033C104.339 239.26 93.6013 275.908 92.484 313.471C91.3668 351.034 99.9071 388.255 117.288 421.574L121.182 419.543C104.149 386.89 95.7795 350.413 96.8744 313.602C97.9693 276.79 108.492 240.875 127.436 209.293C146.38 177.71 173.111 151.518 205.072 133.22C237.033 114.923 273.155 105.133 309.981 104.787L309.94 100.395Z" fill="#29B5E8"/>
<g clip-path="url(#clip4_1347_19060)">
<path d="M310.335 114C311.031 114 311.743 113.71 312.358 113.287L323.452 105.682C324.371 105.052 324.992 104.112 324.992 103.001C324.992 101.886 324.364 100.947 323.449 100.319H323.448L312.349 92.7148C311.736 92.2941 311.032 92 310.332 92C309.619 92.0001 308.984 92.302 308.555 92.8682C308.15 93.4021 307.992 94.0849 307.992 94.7803V111.218C307.992 111.914 308.151 112.597 308.556 113.131C308.985 113.698 309.621 114 310.335 114Z" fill="#29B5E8" stroke="#EFFCFF" stroke-width="2"/>
</g>
<path d="M521.022 414.665C520.674 415.267 520.066 415.738 519.393 416.06L507.252 421.88C506.246 422.362 505.121 422.431 504.158 421.875C503.192 421.317 502.695 420.302 502.609 419.195L502.608 419.195L501.579 405.766L501.581 405.765C501.523 405.024 501.621 404.268 501.971 403.662C502.327 403.045 502.906 402.645 503.611 402.556C504.276 402.472 504.947 402.676 505.549 403.024L519.785 411.243C520.388 411.591 520.9 412.07 521.16 412.689C521.436 413.344 521.379 414.047 521.022 414.665Z" fill="#6FBE46" stroke="#EFFCFF" stroke-width="2"/>
<path d="M115.969 436.343C115.622 435.741 115.518 434.979 115.575 434.234L116.606 420.81C116.691 419.699 117.194 418.69 118.157 418.134C119.123 417.576 120.251 417.653 121.252 418.132L121.253 418.132L133.397 423.955L133.397 423.956C134.068 424.277 134.674 424.74 135.023 425.346C135.38 425.963 135.437 426.664 135.162 427.319C134.902 427.937 134.389 428.416 133.787 428.764L119.551 436.983C118.948 437.331 118.277 437.535 117.611 437.451C116.906 437.362 116.326 436.961 115.969 436.343Z" fill="#1EAEAB" stroke="#EFFCFF" stroke-width="2"/>
</g>
<path d="M84.7882 226.498L82.7054 225.603L88.0403 213.192L90.1231 214.088L87.9723 219.091L101.925 225.089L100.889 227.501L86.9356 221.503L84.7882 226.498ZM105.855 216.304L90.3683 208.252L93.2383 202.732C93.8622 201.533 94.5865 200.644 95.4114 200.068C96.2389 199.486 97.1203 199.189 98.0557 199.176C98.9861 199.16 99.9277 199.4 100.88 199.895C101.828 200.388 102.559 201.021 103.073 201.794C103.584 202.559 103.832 203.444 103.816 204.447C103.803 205.446 103.484 206.545 102.86 207.745L100.686 211.926L98.6749 210.881L100.739 206.911C101.132 206.155 101.344 205.483 101.373 204.897C101.405 204.305 101.272 203.791 100.974 203.354C100.676 202.917 100.237 202.548 99.6577 202.247C99.073 201.943 98.5074 201.793 97.9609 201.797C97.4171 201.796 96.9072 201.976 96.4314 202.337C95.9531 202.69 95.5135 203.253 95.1125 204.024L93.587 206.958L107.07 213.968L105.855 216.304ZM102.842 205.027L111.819 204.833L110.435 207.495L101.498 207.613L102.842 205.027ZM104.792 182.836L106.189 180.593L115.933 186.664C116.97 187.31 117.737 188.126 118.234 189.111C118.726 190.094 118.927 191.17 118.835 192.338C118.738 193.503 118.321 194.678 117.582 195.865C116.845 197.046 115.976 197.937 114.973 198.537C113.965 199.134 112.911 199.428 111.812 199.42C110.708 199.408 109.638 199.079 108.601 198.433L98.8569 192.363L100.249 190.128L109.813 196.085C110.483 196.503 111.17 196.727 111.874 196.757C112.581 196.783 113.254 196.616 113.893 196.257C114.526 195.896 115.076 195.341 115.542 194.594C116.01 193.841 116.267 193.101 116.313 192.373C116.356 191.637 116.208 190.962 115.867 190.348C115.529 189.729 115.026 189.211 114.355 188.794L104.792 182.836ZM119.06 170.347C118.356 169.942 117.631 169.874 116.883 170.142C116.131 170.407 115.458 170.942 114.866 171.747C114.441 172.324 114.166 172.89 114.039 173.446C113.908 173.998 113.914 174.507 114.058 174.973C114.201 175.431 114.471 175.806 114.869 176.099C115.203 176.345 115.549 176.48 115.906 176.502C116.266 176.521 116.623 176.462 116.977 176.327C117.329 176.184 117.669 176.005 117.998 175.788C118.322 175.568 118.62 175.346 118.89 175.122L120.257 174.012C120.697 173.644 121.184 173.293 121.719 172.96C122.253 172.627 122.822 172.372 123.425 172.195C124.028 172.018 124.647 171.972 125.282 172.058C125.92 172.14 126.555 172.413 127.187 172.878C127.983 173.464 128.538 174.19 128.853 175.057C129.171 175.919 129.222 176.87 129.007 177.911C128.795 178.947 128.285 180.014 127.476 181.112C126.702 182.165 125.865 182.952 124.965 183.475C124.065 183.998 123.148 184.252 122.215 184.235C121.278 184.215 120.369 183.917 119.488 183.339L121.054 181.211C121.593 181.544 122.137 181.691 122.688 181.652C123.237 181.605 123.761 181.415 124.259 181.083C124.756 180.744 125.205 180.302 125.606 179.757C126.047 179.157 126.346 178.555 126.501 177.95C126.656 177.338 126.664 176.772 126.524 176.252C126.379 175.73 126.078 175.3 125.62 174.963C125.204 174.657 124.775 174.525 124.335 174.568C123.898 174.606 123.444 174.762 122.974 175.037C122.507 175.307 122.022 175.645 121.519 176.051L119.843 177.379C118.708 178.279 117.601 178.839 116.521 179.061C115.444 179.277 114.416 179.025 113.437 178.304C112.627 177.708 112.082 176.968 111.801 176.085C111.52 175.201 111.489 174.261 111.707 173.264C111.921 172.265 112.374 171.293 113.068 170.351C113.769 169.399 114.554 168.682 115.423 168.2C116.296 167.714 117.18 167.476 118.076 167.486C118.967 167.492 119.797 167.764 120.565 168.302L119.06 170.347ZM121.651 163.113L119.928 161.64L128.705 151.371L130.428 152.844L126.889 156.984L138.434 166.852L136.729 168.847L125.184 158.979L121.651 163.113ZM144.505 159.907L132.032 147.696L134.614 145.059L144.912 155.141L150.147 149.794L152.321 151.923L144.505 159.907ZM160.733 132.735C161.991 134.163 162.791 135.616 163.133 137.095C163.479 138.57 163.42 139.981 162.957 141.329C162.494 142.668 161.685 143.847 160.529 144.865C159.366 145.891 158.088 146.547 156.698 146.834C155.307 147.12 153.901 146.999 152.482 146.471C151.062 145.943 149.724 144.967 148.469 143.543C147.211 142.115 146.409 140.663 146.063 139.188C145.717 137.713 145.776 136.306 146.239 134.967C146.698 133.623 147.509 132.438 148.673 131.412C149.828 130.394 151.101 129.742 152.492 129.455C153.883 129.161 155.289 129.277 156.709 129.806C158.133 130.33 159.474 131.307 160.733 132.735ZM157.926 135.209C157.111 134.284 156.285 133.626 155.448 133.235C154.615 132.84 153.805 132.698 153.017 132.81C152.229 132.921 151.5 133.272 150.831 133.861C150.162 134.451 149.723 135.13 149.513 135.898C149.304 136.665 149.34 137.489 149.623 138.368C149.91 139.244 150.461 140.144 151.276 141.069C152.092 141.994 152.916 142.654 153.748 143.049C154.585 143.44 155.397 143.579 156.185 143.468C156.973 143.357 157.702 143.006 158.371 142.416C159.04 141.826 159.48 141.148 159.689 140.38C159.899 139.612 159.86 138.791 159.573 137.915C159.29 137.036 158.741 136.133 157.926 135.209ZM171.815 120.408C171.472 120.145 171.12 119.95 170.757 119.823C170.391 119.691 170.016 119.628 169.633 119.636C169.251 119.636 168.865 119.706 168.474 119.846C168.088 119.983 167.703 120.194 167.319 120.477C166.602 121.008 166.103 121.652 165.823 122.41C165.548 123.165 165.511 123.995 165.712 124.898C165.911 125.798 166.371 126.736 167.094 127.714C167.817 128.691 168.58 129.413 169.384 129.879C170.188 130.345 170.995 130.557 171.805 130.516C172.612 130.47 173.386 130.174 174.126 129.627C174.798 129.13 175.283 128.587 175.583 127.998C175.884 127.402 175.997 126.791 175.924 126.167C175.856 125.539 175.6 124.926 175.158 124.327L175.827 123.97L172.208 126.646L170.557 124.412L176.43 120.069L177.737 121.837C178.649 123.071 179.172 124.324 179.307 125.595C179.438 126.862 179.224 128.073 178.665 129.228C178.102 130.379 177.232 131.39 176.053 132.261C174.737 133.234 173.367 133.799 171.942 133.955C170.514 134.106 169.124 133.852 167.773 133.19C166.423 132.52 165.2 131.446 164.106 129.965C163.265 128.828 162.68 127.692 162.35 126.558C162.021 125.416 161.927 124.313 162.066 123.249C162.205 122.185 162.552 121.197 163.107 120.285C163.662 119.373 164.403 118.574 165.331 117.888C166.126 117.3 166.952 116.87 167.81 116.596C168.664 116.318 169.511 116.193 170.352 116.221C171.197 116.247 172.003 116.424 172.771 116.754C173.534 117.08 174.221 117.555 174.83 118.178L171.815 120.408ZM178.802 108.653L188.318 123.285L185.224 125.297L175.708 110.665L178.802 108.653ZM186.243 104.183L192.254 107.596L192.372 107.529L192.485 100.609L196.102 98.5377L195.816 108.758L204.879 113.626L201.195 115.735L195.129 112.343L195.011 112.411L194.864 119.36L191.196 121.46L191.6 111.172L182.612 106.262L186.243 104.183ZM210.159 91.5538L217.421 107.426L215.026 108.522L207.764 92.6495L210.159 91.5538ZM228.841 84.0583L235.171 100.325L232.915 101.202L220.005 92.4902L219.854 92.5489L224.496 104.479L222.042 105.434L215.712 89.1674L217.984 88.2834L230.908 97.0084L231.059 96.9497L226.411 85.0041L228.841 84.0583ZM234.729 84.3422L234.078 82.1706L247.018 78.2923L247.669 80.4639L242.452 82.0275L246.813 96.5756L244.298 97.3292L239.938 82.7811L234.729 84.3422ZM256.069 93.9443L252.267 76.909L262.947 74.5249L263.441 76.7375L255.331 78.5479L256.489 83.7383L264.042 82.0524L264.534 84.2567L256.981 85.9426L258.146 91.158L266.355 89.3254L266.849 91.538L256.069 93.9443ZM271.376 90.6656L268.779 73.4053L274.931 72.4797C276.269 72.2785 277.413 72.342 278.364 72.67C279.321 72.9971 280.08 73.5351 280.641 74.2839C281.201 75.027 281.561 75.9296 281.721 76.9915C281.88 78.0478 281.798 79.011 281.475 79.8813C281.156 80.745 280.587 81.4656 279.766 82.0431C278.95 82.6196 277.874 83.0085 276.537 83.2097L271.876 83.9108L271.539 81.669L275.964 81.0034C276.807 80.8766 277.474 80.6526 277.966 80.3316C278.463 80.0097 278.801 79.5998 278.979 79.1019C279.157 78.6039 279.197 78.0319 279.1 77.3858C279.002 76.734 278.79 76.1884 278.466 75.7488C278.147 75.3084 277.701 75.002 277.129 74.8294C276.562 74.6504 275.849 74.6256 274.989 74.7549L271.719 75.2469L273.98 90.2738L271.376 90.6656ZM278.725 81.5964L284.161 88.7422L281.194 89.1885L275.842 82.03L278.725 81.5964ZM302.387 78.5727C302.517 80.4317 302.289 82.0539 301.703 83.4392C301.116 84.8188 300.255 85.91 299.121 86.7127C297.992 87.5095 296.677 87.9604 295.175 88.0656C293.667 88.1712 292.296 87.9083 291.061 87.2771C289.832 86.6399 288.83 85.6762 288.056 84.3862C287.283 83.0962 286.831 81.5245 286.701 79.6711C286.571 77.812 286.799 76.1927 287.386 74.8131C287.972 73.4278 288.83 72.3368 289.959 71.5401C291.093 70.7373 292.414 70.2831 293.922 70.1776C295.424 70.0724 296.79 70.3384 298.019 70.9757C299.254 71.6069 300.258 72.5675 301.032 73.8575C301.805 75.1419 302.257 76.7136 302.387 78.5727ZM299.785 78.7548C299.686 77.3379 299.373 76.1608 298.846 75.2238C298.324 74.2806 297.649 73.5875 296.821 73.1442C295.998 72.695 295.087 72.5052 294.09 72.5751C293.087 72.6454 292.209 72.9603 291.456 73.5199C290.703 74.0739 290.131 74.8543 289.741 75.8614C289.355 76.8623 289.212 78.0713 289.311 79.4883C289.41 80.9053 289.721 82.0854 290.242 83.0285C290.769 83.9656 291.444 84.6587 292.268 85.108C293.09 85.5516 294.003 85.7383 295.007 85.668C296.004 85.5982 296.879 85.2863 297.632 84.7323C298.391 84.1723 298.962 83.3918 299.348 82.3909C299.739 81.3838 299.885 80.1718 299.785 78.7548ZM307.467 87.1154L307.608 69.6614L313.83 69.7118C315.187 69.7228 316.31 69.979 317.198 70.4806C318.086 70.9821 318.749 71.6636 319.185 72.5251C319.621 73.381 319.835 74.343 319.826 75.4111C319.818 76.4849 319.585 77.449 319.129 78.3033C318.679 79.1519 318.004 79.8226 317.102 80.3153C316.206 80.8024 315.082 81.0405 313.729 81.0295L309.451 80.9949L309.469 78.762L313.509 78.7947C314.367 78.8017 315.064 78.6596 315.6 78.3685C316.137 78.0717 316.532 77.6658 316.786 77.1507C317.041 76.6357 317.17 76.0487 317.176 75.3896C317.181 74.7306 317.061 74.1443 316.815 73.631C316.569 73.1176 316.177 72.7139 315.64 72.4197C315.108 72.1256 314.405 71.975 313.53 71.968L310.223 71.9412L310.1 87.1367L307.467 87.1154ZM324.008 87.3821L325.358 69.9798L336.268 70.8259L336.093 73.0862L327.808 72.4437L327.397 77.7459L335.113 78.3443L334.938 80.596L327.223 79.9977L326.809 85.3255L335.196 85.9758L335.021 88.2361L324.008 87.3821ZM339.604 88.7262L342.169 71.4612L348.323 72.3756C349.661 72.5743 350.736 72.9697 351.55 73.5616C352.37 74.1544 352.938 74.8908 353.255 75.7709C353.573 76.6453 353.654 77.6136 353.496 78.6758C353.339 79.7324 352.979 80.6296 352.415 81.3673C351.858 82.1002 351.103 82.6227 350.149 82.9347C349.201 83.2476 348.058 83.3047 346.72 83.106L342.058 82.4133L342.391 80.1709L346.817 80.8285C347.66 80.9537 348.364 80.9348 348.928 80.7716C349.498 80.6093 349.941 80.316 350.256 79.8919C350.572 79.4678 350.778 78.9326 350.874 78.2863C350.971 77.6344 350.928 77.0507 350.746 76.5355C350.57 76.021 350.234 75.5977 349.737 75.2654C349.248 74.9284 348.573 74.696 347.713 74.5683L344.442 74.0823L342.209 89.1133L339.604 88.7262ZM349.284 82.2031L352.392 90.6264L349.425 90.1855L346.401 81.7747L349.284 82.2031ZM357.498 91.6464L354.772 91.026L364.771 75.401L367.738 76.0764L369.988 94.4897L367.262 93.8692L365.621 78.8462L365.488 78.8159L357.498 91.6464ZM359.472 85.0858L368.314 87.0986L367.822 89.2592L358.98 87.2464L359.472 85.0858ZM373.572 95.4563L378.738 78.7836L384.844 80.6754C386.027 81.0419 386.946 81.5408 387.601 82.1721C388.258 82.7978 388.676 83.5015 388.856 84.283C389.038 85.0591 389.002 85.8596 388.746 86.6846C388.531 87.3793 388.222 87.9259 387.818 88.3245C387.417 88.7176 386.957 88.9916 386.44 89.1464C385.929 89.2975 385.398 89.3591 384.848 89.3313L384.797 89.4941C385.342 89.6927 385.827 90.0392 386.251 90.5333C386.682 91.0238 386.978 91.624 387.138 92.334C387.299 93.0441 387.246 93.8306 386.978 94.6935C386.714 95.5456 386.276 96.2486 385.665 96.8026C385.06 97.3529 384.281 97.6974 383.328 97.8364C382.376 97.9698 381.255 97.8365 379.963 97.4363L373.572 95.4563ZM376.756 94.0783L380.387 95.2033C381.592 95.5766 382.527 95.6106 383.193 95.3052C383.859 94.9999 384.3 94.4972 384.517 93.7971C384.68 93.2706 384.697 92.7464 384.567 92.2244C384.437 91.7024 384.166 91.2346 383.753 90.8211C383.345 90.4092 382.804 90.0991 382.131 89.8906L378.411 88.7379L376.756 94.0783ZM379.019 86.7759L382.389 87.8201C382.954 87.995 383.495 88.0437 384.013 87.9662C384.536 87.8903 384.991 87.6982 385.378 87.3898C385.772 87.0777 386.052 86.653 386.219 86.1157C386.432 85.4264 386.37 84.7736 386.031 84.1572C385.693 83.5408 385.024 83.0779 384.026 82.7685L380.59 81.7041L379.019 86.7759ZM389.67 100.582L395.971 84.3045L398.427 85.2552L392.945 99.4185L400.32 102.274L399.502 104.388L389.67 100.582ZM403.369 106.024L410.754 90.2083L420.67 94.8383L419.71 96.8924L412.181 93.3767L409.931 98.1954L416.943 101.47L415.987 103.516L408.975 100.242L406.715 105.084L414.337 108.643L413.377 110.697L403.369 106.024ZM424.132 116.366L433.078 101.378L442.474 106.986L441.313 108.933L434.177 104.674L431.452 109.241L438.097 113.207L436.939 115.146L430.294 111.18L427.555 115.769L434.779 120.08L433.617 122.026L424.132 116.366ZM456.134 123.244L453.961 121.711C454.205 121.188 454.337 120.67 454.359 120.157C454.38 119.643 454.313 119.147 454.157 118.669C454.001 118.19 453.763 117.744 453.442 117.33C453.127 116.92 452.742 116.554 452.287 116.233C451.465 115.654 450.583 115.341 449.642 115.296C448.705 115.254 447.767 115.5 446.827 116.033C445.893 116.57 445.019 117.414 444.207 118.565C443.388 119.726 442.883 120.837 442.691 121.897C442.504 122.961 442.591 123.927 442.953 124.794C443.315 125.661 443.902 126.381 444.714 126.954C445.165 127.272 445.634 127.513 446.124 127.677C446.621 127.84 447.119 127.917 447.619 127.908C448.119 127.899 448.605 127.8 449.079 127.613C449.56 127.424 450.005 127.133 450.414 126.74L452.582 128.279C451.971 128.899 451.291 129.385 450.541 129.739C449.798 130.092 449.017 130.298 448.195 130.358C447.382 130.417 446.561 130.329 445.734 130.093C444.906 129.856 444.1 129.462 443.315 128.908C442.08 128.037 441.186 126.968 440.633 125.702C440.083 124.431 439.916 123.051 440.132 121.563C440.352 120.077 440.998 118.575 442.069 117.057C443.143 115.534 444.343 114.424 445.67 113.725C447 113.023 448.354 112.719 449.733 112.816C451.115 112.907 452.421 113.387 453.651 114.255C454.408 114.789 455.037 115.396 455.537 116.076C456.046 116.754 456.415 117.487 456.645 118.275C456.878 119.059 456.955 119.871 456.877 120.712C456.801 121.549 456.553 122.393 456.134 123.244ZM470.027 138.54C468.831 139.969 467.541 140.978 466.157 141.569C464.777 142.155 463.401 142.344 462.027 142.135C460.661 141.925 459.401 141.337 458.246 140.371C457.087 139.401 456.282 138.26 455.831 136.949C455.388 135.637 455.336 134.248 455.674 132.782C456.012 131.316 456.777 129.871 457.97 128.446C459.166 127.017 460.454 126.01 461.834 125.423C463.217 124.833 464.592 124.642 465.958 124.852C467.331 125.061 468.598 125.651 469.757 126.621C470.911 127.587 471.71 128.726 472.153 130.038C472.604 131.35 472.661 132.738 472.323 134.204C471.988 135.665 471.223 137.111 470.027 138.54ZM468.027 136.866C468.939 135.776 469.53 134.712 469.801 133.671C470.08 132.63 470.075 131.663 469.786 130.769C469.505 129.874 468.981 129.106 468.214 128.464C467.443 127.818 466.592 127.436 465.662 127.316C464.735 127.193 463.782 127.358 462.802 127.812C461.83 128.265 460.888 129.037 459.976 130.126C459.064 131.215 458.469 132.28 458.19 133.321C457.919 134.362 457.924 135.329 458.205 136.224C458.49 137.114 459.018 137.882 459.789 138.528C460.556 139.17 461.403 139.552 462.329 139.676C463.264 139.799 464.217 139.634 465.189 139.18C466.169 138.726 467.115 137.955 468.027 136.866ZM483.565 145.707C484.066 145.067 484.236 144.359 484.076 143.581C483.92 142.799 483.486 142.057 482.772 141.357C482.262 140.855 481.74 140.502 481.208 140.298C480.68 140.09 480.175 140.024 479.693 140.101C479.22 140.177 478.81 140.392 478.464 140.745C478.173 141.041 477.991 141.364 477.918 141.714C477.849 142.068 477.856 142.43 477.94 142.798C478.032 143.167 478.162 143.53 478.329 143.886C478.501 144.238 478.679 144.564 478.863 144.863L479.768 146.374C480.07 146.861 480.348 147.393 480.602 147.969C480.857 148.546 481.029 149.145 481.119 149.767C481.209 150.389 481.166 151.008 480.991 151.624C480.82 152.244 480.459 152.834 479.91 153.394C479.217 154.099 478.42 154.546 477.517 154.735C476.619 154.928 475.67 154.844 474.671 154.484C473.675 154.127 472.691 153.471 471.718 152.516C470.785 151.6 470.124 150.66 469.734 149.695C469.343 148.73 469.222 147.787 469.371 146.866C469.523 145.94 469.947 145.083 470.643 144.293L472.528 146.144C472.123 146.63 471.9 147.148 471.861 147.699C471.83 148.25 471.943 148.795 472.201 149.335C472.467 149.875 472.842 150.382 473.324 150.856C473.855 151.377 474.409 151.758 474.986 151.998C475.57 152.238 476.13 152.325 476.663 152.26C477.201 152.191 477.669 151.954 478.067 151.548C478.43 151.179 478.621 150.774 478.641 150.332C478.665 149.893 478.574 149.422 478.369 148.918C478.168 148.417 477.902 147.889 477.571 147.334L476.494 145.487C475.763 144.236 475.365 143.061 475.299 141.961C475.237 140.864 475.631 139.882 476.483 139.015C477.188 138.297 477.998 137.862 478.912 137.709C479.827 137.556 480.762 137.658 481.718 138.015C482.677 138.368 483.574 138.955 484.409 139.775C485.253 140.603 485.851 141.481 486.205 142.41C486.563 143.343 486.674 144.252 486.537 145.138C486.404 146.019 486.018 146.802 485.377 147.486L483.565 145.707ZM491.763 147.459L493.735 149.708L490.773 158.368L490.897 158.509L499.869 156.707L501.841 158.957L489.694 161.183L484.542 165.7L482.811 163.726L487.964 159.209L491.763 147.459ZM507.04 173.181C507.629 172.623 507.903 171.947 507.86 171.154C507.822 170.357 507.502 169.56 506.901 168.761C506.47 168.189 506.006 167.763 505.51 167.482C505.019 167.198 504.529 167.058 504.042 167.063C503.562 167.068 503.125 167.22 502.73 167.517C502.399 167.767 502.171 168.059 502.047 168.395C501.926 168.735 501.88 169.093 501.908 169.471C501.944 169.849 502.018 170.227 502.132 170.604C502.25 170.977 502.377 171.326 502.514 171.649L503.186 173.278C503.412 173.804 503.608 174.372 503.774 174.979C503.94 175.587 504.022 176.205 504.018 176.833C504.015 177.462 503.881 178.068 503.616 178.651C503.355 179.239 502.911 179.769 502.285 180.241C501.496 180.836 500.641 181.16 499.72 181.213C498.803 181.27 497.877 181.047 496.942 180.542C496.01 180.042 495.134 179.247 494.314 178.158C493.527 177.114 493.013 176.086 492.77 175.074C492.527 174.062 492.547 173.112 492.83 172.222C493.118 171.33 493.665 170.544 494.47 169.867L496.06 171.977C495.587 172.397 495.29 172.877 495.17 173.416C495.057 173.956 495.088 174.512 495.263 175.084C495.446 175.658 495.741 176.214 496.148 176.754C496.596 177.349 497.087 177.808 497.622 178.13C498.165 178.454 498.705 178.623 499.243 178.638C499.785 178.65 500.283 178.484 500.736 178.142C501.149 177.831 501.399 177.459 501.484 177.024C501.573 176.595 501.553 176.115 501.425 175.586C501.3 175.061 501.115 174.5 500.871 173.901L500.079 171.915C499.542 170.57 499.322 169.348 499.42 168.25C499.521 167.157 500.057 166.244 501.028 165.513C501.832 164.908 502.697 164.597 503.624 164.582C504.551 164.566 505.461 164.806 506.353 165.3C507.249 165.792 508.05 166.505 508.754 167.44C509.465 168.384 509.927 169.341 510.139 170.312C510.355 171.288 510.329 172.203 510.063 173.058C509.801 173.91 509.303 174.627 508.568 175.209L507.04 173.181ZM513.228 177.739L515.134 176.51L522.454 187.863L520.549 189.092L517.597 184.515L504.833 192.745L503.411 190.539L516.175 182.309L513.228 177.739ZM509.933 200.905L525.234 192.506L530.5 202.099L528.513 203.19L524.514 195.905L519.852 198.464L523.576 205.248L521.596 206.335L517.872 199.551L513.188 202.122L517.236 209.496L515.248 210.587L509.933 200.905ZM533.262 207.575L534.566 210.492L524.448 221.104L524.532 221.29L539.186 220.825L540.491 223.742L524.557 230.867L523.534 228.58L535.064 223.424L534.998 223.276L521.39 223.722L520.541 221.824L529.955 211.975L529.889 211.828L518.35 216.987L517.327 214.7L533.262 207.575Z" fill="white"/>
<path d="M311.584 254C347.805 254 377.167 283.363 377.167 319.584C377.167 355.804 347.804 385.167 311.584 385.167C275.363 385.167 246 355.805 246 319.584C246 283.363 275.363 254 311.584 254Z" fill="url(#paint4_linear_1347_19060)"/>
<path d="M311.584 254C347.805 254 377.167 283.363 377.167 319.584C377.167 355.804 347.804 385.167 311.584 385.167C275.363 385.167 246 355.805 246 319.584C246 283.363 275.363 254 311.584 254Z" stroke="white" stroke-width="10"/>
<path d="M303.965 296.414C304.198 296.643 304.198 297.01 303.965 297.239L303.035 298.156C302.922 298.268 302.77 298.327 302.617 298.327C302.464 298.327 302.318 298.268 302.199 298.156C301.966 297.927 301.966 297.56 302.199 297.331L303.128 296.414C303.361 296.185 303.733 296.185 303.965 296.414ZM301.169 299.178C300.937 298.949 300.565 298.949 300.332 299.178L299.416 300.082L300.332 300.986C300.445 301.097 300.598 301.156 300.751 301.156C300.904 301.156 301.05 301.097 301.169 300.986C301.402 300.757 301.402 300.39 301.169 300.161L301.083 300.075L301.169 299.99C301.402 299.761 301.402 299.394 301.169 299.165V299.178ZM303.035 302.001C302.803 301.772 302.431 301.772 302.199 302.001C301.966 302.231 301.966 302.597 302.199 302.827L303.128 303.744C303.241 303.855 303.394 303.914 303.547 303.914C303.699 303.914 303.846 303.855 303.965 303.744C304.198 303.514 304.198 303.148 303.965 302.918L303.035 302.001ZM308.8 302.008L307.87 302.925C307.638 303.154 307.638 303.521 307.87 303.75C307.983 303.862 308.136 303.92 308.289 303.92C308.441 303.92 308.587 303.862 308.707 303.75L309.637 302.833C309.869 302.604 309.869 302.237 309.637 302.008C309.404 301.779 309.032 301.779 308.8 302.008ZM308.7 296.414C308.468 296.185 308.096 296.185 307.864 296.414C307.631 296.643 307.631 297.01 307.864 297.239L308.793 298.156C308.906 298.268 309.059 298.327 309.212 298.327C309.364 298.327 309.511 298.268 309.63 298.156C309.863 297.927 309.863 297.56 309.63 297.331L308.7 296.414ZM323.331 311.669C323.218 311.781 323.065 311.84 322.913 311.84C322.76 311.84 322.614 311.781 322.494 311.669L317.248 306.495L311.583 312.082L305.918 306.495L300.253 312.082L288.086 300.082L300.246 288.082L305.911 293.669L311.583 288.082L317.248 293.669L322.919 288.082L335.086 300.082L323.338 311.669H323.331ZM333.412 300.082L322.913 289.726L318.078 294.495L318.164 294.58C318.397 294.809 318.397 295.176 318.164 295.405C318.051 295.517 317.898 295.575 317.746 295.575C317.593 295.575 317.447 295.517 317.327 295.405L317.241 295.32L317.155 295.405C316.922 295.634 316.55 295.634 316.318 295.405C316.085 295.176 316.085 294.809 316.318 294.58L316.404 294.495L311.569 289.726L306.735 294.495L306.821 294.58C307.053 294.809 307.053 295.176 306.821 295.405C306.708 295.517 306.555 295.575 306.402 295.575C306.25 295.575 306.104 295.517 305.984 295.405L305.898 295.32L305.811 295.405C305.579 295.634 305.207 295.634 304.975 295.405C304.742 295.176 304.742 294.809 304.975 294.58L305.061 294.495L300.226 289.726L289.726 300.082L300.226 310.438L305.061 305.669L304.975 305.584C304.742 305.355 304.742 304.988 304.975 304.759C305.207 304.53 305.579 304.53 305.811 304.759L305.898 304.844L305.984 304.759C306.217 304.53 306.588 304.53 306.821 304.759C307.053 304.988 307.053 305.355 306.821 305.584L306.735 305.669L311.569 310.438L316.404 305.669L316.318 305.584C316.085 305.355 316.085 304.988 316.318 304.759C316.55 304.53 316.922 304.53 317.155 304.759L317.241 304.844L317.327 304.759C317.56 304.53 317.932 304.53 318.164 304.759C318.397 304.988 318.397 305.355 318.164 305.584L318.078 305.669L322.913 310.438L333.412 300.082ZM314.465 296.414L313.535 297.331C313.303 297.56 313.303 297.927 313.535 298.156C313.648 298.268 313.801 298.327 313.954 298.327C314.106 298.327 314.252 298.268 314.372 298.156L315.302 297.239C315.534 297.01 315.534 296.643 315.302 296.414C315.069 296.185 314.697 296.185 314.465 296.414ZM312.499 299.178C312.267 298.949 311.895 298.949 311.662 299.178L311.576 299.263L311.49 299.178C311.257 298.949 310.885 298.949 310.653 299.178C310.42 299.407 310.42 299.774 310.653 300.003L310.739 300.089L310.653 300.174C310.42 300.403 310.42 300.77 310.653 300.999C310.766 301.11 310.918 301.169 311.071 301.169C311.224 301.169 311.37 301.11 311.49 300.999L311.576 300.914L311.662 300.999C311.775 301.11 311.928 301.169 312.081 301.169C312.233 301.169 312.38 301.11 312.499 300.999C312.732 300.77 312.732 300.403 312.499 300.174L312.413 300.089L312.499 300.003C312.732 299.774 312.732 299.407 312.499 299.178ZM314.365 302.001C314.133 301.772 313.761 301.772 313.528 302.001C313.296 302.231 313.296 302.597 313.528 302.827L314.458 303.744C314.571 303.855 314.724 303.914 314.877 303.914C315.029 303.914 315.176 303.855 315.295 303.744C315.528 303.514 315.528 303.148 315.295 302.918L314.365 302.001ZM320.13 302.008L319.2 302.925C318.968 303.154 318.968 303.521 319.2 303.75C319.313 303.862 319.466 303.92 319.619 303.92C319.771 303.92 319.917 303.862 320.037 303.75L320.967 302.833C321.199 302.604 321.199 302.237 320.967 302.008C320.734 301.779 320.362 301.779 320.13 302.008ZM321.996 299.178C321.764 299.407 321.764 299.774 321.996 300.003L322.082 300.089L321.996 300.174C321.764 300.403 321.764 300.77 321.996 300.999C322.109 301.11 322.262 301.169 322.414 301.169C322.567 301.169 322.713 301.11 322.833 300.999L323.749 300.095L322.833 299.191C322.6 298.962 322.229 298.962 321.996 299.191V299.178ZM320.037 296.414C319.804 296.185 319.433 296.185 319.2 296.414C318.968 296.643 318.968 297.01 319.2 297.239L320.13 298.156C320.243 298.268 320.396 298.327 320.548 298.327C320.701 298.327 320.847 298.268 320.967 298.156C321.199 297.927 321.199 297.56 320.967 297.331L320.037 296.414Z" fill="white"/>
<path d="M334.73 343.961V350.799H333.781V342.738H335.149L338.091 349.509L341.049 342.738H342.422V350.799H341.473V343.95L338.476 350.799H337.711L334.73 343.961Z" fill="white"/>
<path d="M328.913 343.587H326.379V346.914H328.913C329.508 346.914 329.996 346.761 330.375 346.456C330.759 346.151 330.95 345.758 330.95 345.278C330.95 344.761 330.761 344.35 330.381 344.044C330.005 343.739 329.516 343.587 328.913 343.587ZM326.379 347.756V350.799H325.43V342.738H328.98C329.832 342.738 330.532 342.976 331.079 343.453C331.626 343.929 331.899 344.538 331.899 345.278C331.899 345.84 331.713 346.34 331.341 346.78C330.969 347.215 330.491 347.496 329.906 347.622L331.966 350.799H330.855L328.946 347.756H326.379Z" fill="white"/>
<path d="M321.552 350.536C320.894 350.9 320.146 351.083 319.308 351.083C318.471 351.083 317.723 350.9 317.064 350.536C316.406 350.171 315.892 349.661 315.524 349.006C315.159 348.351 314.977 347.607 314.977 346.774C314.977 345.94 315.159 345.196 315.524 344.541C315.892 343.882 316.406 343.37 317.064 343.006C317.723 342.637 318.471 342.453 319.308 342.453C320.146 342.453 320.894 342.637 321.552 343.006C322.215 343.37 322.73 343.882 323.098 344.541C323.467 345.196 323.651 345.94 323.651 346.774C323.651 347.607 323.467 348.351 323.098 349.006C322.73 349.661 322.215 350.171 321.552 350.536ZM319.308 343.302C318.326 343.302 317.516 343.629 316.88 344.284C316.244 344.935 315.926 345.765 315.926 346.774C315.926 347.778 316.244 348.606 316.88 349.258C317.516 349.905 318.326 350.232 319.308 350.24C320.294 350.24 321.104 349.914 321.736 349.263C322.373 348.608 322.691 347.778 322.691 346.774C322.691 345.761 322.373 344.93 321.736 344.278C321.104 343.627 320.294 343.302 319.308 343.302Z" fill="white"/>
<path d="M313.136 347.505H309.676V350.799H308.727V342.738H313.812V343.587H309.676V346.718H313.136V347.505Z" fill="white"/>
<path d="M303.759 350.799V343.587H301.062V342.738H307.409V343.587H304.708V350.799H303.759Z" fill="white"/>
<path d="M297.261 343.587L295.419 348.41H299.092L297.261 343.587ZM295.19 349.152L294.576 350.799H293.555L296.563 342.738H297.937L300.94 350.799H299.924L299.321 349.152H295.19Z" fill="white"/>
<path d="M292.777 350.799H287.703V342.738H288.652V349.95H292.777V350.799Z" fill="white"/>
<path d="M282.711 343.587H280.913V347.36H282.711C283.41 347.36 283.98 347.185 284.419 346.835C284.862 346.486 285.081 346.035 285.077 345.485C285.077 344.926 284.856 344.471 284.413 344.117C283.974 343.763 283.407 343.587 282.711 343.587ZM282.839 348.214H280.913V350.799H279.992V342.738H282.85C283.781 342.738 284.543 342.997 285.139 343.514C285.738 344.028 286.038 344.685 286.038 345.485C286.038 346.281 285.738 346.936 285.139 347.449C284.543 347.959 283.777 348.214 282.839 348.214Z" fill="white"/>
<path d="M353.608 338.15V335.153L350.711 330.09H351.766L354.088 334.243L356.371 330.09H357.448L354.568 335.153V338.15H353.608Z" fill="white"/>
<path d="M346.493 338.15V330.938H343.797V330.09H350.144V330.938H347.442V338.15H346.493Z" fill="white"/>
<path d="M341.523 330.09H342.472V338.15H341.523V330.09Z" fill="white"/>
<path d="M336.655 330.938H334.121V334.265H336.655C337.25 334.265 337.738 334.113 338.118 333.807C338.501 333.502 338.692 333.11 338.692 332.63C338.692 332.112 338.503 331.701 338.123 331.396C337.747 331.091 337.258 330.938 336.655 330.938ZM334.121 335.108V338.15H333.172V330.09H336.722C337.574 330.09 338.274 330.328 338.821 330.804C339.368 331.281 339.641 331.889 339.641 332.63C339.641 333.192 339.455 333.692 339.083 334.131C338.711 334.567 338.233 334.848 337.649 334.974L339.708 338.15H338.598L336.689 335.108H334.121Z" fill="white"/>
<path d="M330.121 334.879V330.09H331.07V334.879C331.07 335.921 330.765 336.775 330.155 337.441C329.544 338.104 328.763 338.435 327.81 338.435C327.177 338.435 326.612 338.284 326.113 337.983C325.618 337.681 325.231 337.261 324.952 336.721C324.677 336.178 324.539 335.564 324.539 334.879V330.09H325.488V334.879C325.488 335.37 325.581 335.822 325.767 336.236C325.957 336.645 326.23 336.974 326.588 337.224C326.945 337.469 327.352 337.592 327.81 337.592C328.499 337.592 329.055 337.341 329.479 336.838C329.907 336.332 330.121 335.679 330.121 334.879Z" fill="white"/>
<path d="M319.009 337.591C319.686 337.591 320.297 337.391 320.84 336.989C321.383 336.587 321.735 336.079 321.895 335.465L322.816 335.632C322.682 336.164 322.431 336.644 322.062 337.072C321.694 337.497 321.242 337.83 320.706 338.072C320.174 338.313 319.608 338.434 319.009 338.434C318.41 338.434 317.852 338.326 317.334 338.111C316.817 337.895 316.374 337.599 316.006 337.223C315.641 336.844 315.353 336.388 315.141 335.856C314.932 335.32 314.828 334.743 314.828 334.125C314.828 333.507 314.932 332.931 315.141 332.395C315.353 331.859 315.641 331.401 316.006 331.022C316.374 330.642 316.817 330.344 317.334 330.128C317.855 329.913 318.414 329.805 319.009 329.805C319.917 329.805 320.728 330.082 321.443 330.636C322.161 331.191 322.619 331.892 322.816 332.741L321.884 332.858C321.735 332.225 321.389 331.701 320.846 331.284C320.306 330.863 319.694 330.653 319.009 330.653C318.068 330.653 317.294 330.979 316.687 331.63C316.08 332.281 315.777 333.113 315.777 334.125C315.781 334.62 315.863 335.083 316.023 335.515C316.186 335.943 316.41 336.31 316.693 336.615C316.975 336.92 317.316 337.16 317.714 337.335C318.116 337.506 318.548 337.591 319.009 337.591Z" fill="white"/>
<path d="M308.773 334.377V337.302H313.461V338.15H307.852V330.09H313.35V330.938H308.773V333.579H312.892V334.377H308.773Z" fill="white"/>
<path d="M305.991 335.805C305.991 336.579 305.706 337.212 305.137 337.703C304.571 338.191 303.819 338.434 302.882 338.434C301.895 338.434 301.082 338.163 300.442 337.619C299.806 337.076 299.484 336.384 299.477 335.543H300.426C300.426 336.138 300.656 336.63 301.118 337.017C301.579 337.4 302.171 337.591 302.893 337.591C303.548 337.591 304.067 337.437 304.45 337.128C304.837 336.819 305.031 336.417 305.031 335.922C305.031 335.714 304.982 335.534 304.886 335.381C304.793 335.225 304.685 335.102 304.562 335.013C304.439 334.923 304.253 334.845 304.004 334.778C303.758 334.707 303.55 334.659 303.378 334.633C303.211 334.603 302.965 334.568 302.642 334.527C302.433 334.497 302.266 334.473 302.139 334.454C302.013 334.436 301.851 334.408 301.654 334.371C301.46 334.33 301.304 334.291 301.185 334.253C301.066 334.216 300.924 334.166 300.76 334.103C300.6 334.036 300.47 333.965 300.37 333.891C300.273 333.816 300.171 333.725 300.063 333.617C299.955 333.509 299.871 333.392 299.811 333.265C299.752 333.139 299.702 332.994 299.661 332.83C299.624 332.663 299.605 332.48 299.605 332.283C299.605 331.561 299.886 330.968 300.448 330.502C301.01 330.037 301.741 329.805 302.642 329.805C303.248 329.805 303.793 329.922 304.277 330.156C304.765 330.387 305.144 330.711 305.416 331.128C305.691 331.541 305.831 332.01 305.834 332.534H304.908C304.908 331.984 304.694 331.533 304.266 331.183C303.842 330.83 303.3 330.653 302.642 330.653C302.02 330.653 301.518 330.798 301.134 331.089C300.755 331.375 300.565 331.747 300.565 332.205C300.565 332.354 300.587 332.49 300.632 332.612C300.68 332.735 300.736 332.839 300.8 332.925C300.866 333.011 300.963 333.089 301.09 333.159C301.22 333.23 301.339 333.288 301.447 333.332C301.559 333.373 301.708 333.414 301.894 333.455C302.083 333.496 302.243 333.528 302.374 333.55C302.504 333.569 302.683 333.593 302.91 333.623C303.185 333.66 303.399 333.692 303.551 333.718C303.704 333.744 303.905 333.786 304.154 333.846C304.407 333.902 304.605 333.961 304.746 334.025C304.891 334.088 305.053 334.175 305.232 334.287C305.414 334.395 305.552 334.516 305.645 334.65C305.741 334.784 305.823 334.949 305.89 335.147C305.957 335.344 305.991 335.563 305.991 335.805Z" fill="white"/>
<path d="M291.206 330.938L289.364 335.761H293.037L291.206 330.938ZM289.136 336.503L288.522 338.15H287.5L290.509 330.09H291.882L294.885 338.15H293.869L293.266 336.503H289.136Z" fill="white"/>
<path d="M283.743 338.15V330.938H281.047V330.09H287.394V330.938H284.692V338.15H283.743Z" fill="white"/>
<path d="M277.253 330.938L275.411 335.761H279.084L277.253 330.938ZM275.182 336.503L274.568 338.15H273.547L276.556 330.09H277.929L280.932 338.15H279.916L279.313 336.503H275.182Z" fill="white"/>
<path d="M265.719 338.15V330.09H268.175C269.582 330.09 270.715 330.46 271.574 331.201C272.434 331.941 272.864 332.916 272.864 334.126C272.864 334.922 272.668 335.625 272.278 336.236C271.891 336.846 271.342 337.318 270.631 337.653C269.92 337.985 269.101 338.15 268.175 338.15H265.719ZM271.926 334.126C271.926 333.154 271.582 332.38 270.893 331.803C270.209 331.227 269.302 330.938 268.175 330.938H266.668V337.302H268.175C269.302 337.302 270.209 337.013 270.893 336.437C271.582 335.86 271.926 335.089 271.926 334.126Z" fill="white"/>
<path d="M341.367 325.506L344.08 321.208L341.44 317.367H343.667L345.576 320.192L347.53 317.367H349.796L347.027 321.208L349.863 325.506H347.602L345.576 322.279L343.6 325.506H341.367Z" fill="white"/>
<path d="M338.203 317.367H340.123V325.506H338.203V317.367Z" fill="white"/>
<path d="M332.448 324.143C333.106 324.143 333.667 323.948 334.128 323.557C334.589 323.163 334.826 322.677 334.837 322.1H332.336V320.889H336.701C336.787 321.827 336.66 322.67 336.322 323.418C335.983 324.162 335.471 324.744 334.787 325.165C334.102 325.581 333.307 325.79 332.403 325.79C331.54 325.79 330.766 325.604 330.081 325.232C329.396 324.86 328.86 324.342 328.473 323.68C328.09 323.017 327.898 322.27 327.898 321.436C327.898 320.602 328.09 319.854 328.473 319.192C328.86 318.53 329.396 318.012 330.081 317.64C330.766 317.268 331.54 317.082 332.403 317.082C333.051 317.082 333.653 317.205 334.212 317.45C334.774 317.696 335.241 318.038 335.613 318.478C335.989 318.913 336.234 319.408 336.35 319.962L334.563 320.269C334.437 319.823 334.169 319.454 333.76 319.164C333.354 318.874 332.898 318.729 332.392 318.729C331.644 318.729 331.028 318.984 330.544 319.493C330.061 320 329.819 320.647 329.819 321.436C329.819 322.221 330.066 322.869 330.561 323.378C331.056 323.888 331.685 324.143 332.448 324.143Z" fill="white"/>
<path d="M322.302 325.79C321.42 325.79 320.636 325.608 319.952 325.243C319.271 324.878 318.74 324.366 318.361 323.708C317.985 323.045 317.797 322.288 317.797 321.436C317.797 320.587 317.985 319.834 318.361 319.175C318.74 318.513 319.271 317.999 319.952 317.635C320.636 317.266 321.42 317.082 322.302 317.082C323.18 317.082 323.961 317.266 324.646 317.635C325.331 317.999 325.861 318.513 326.237 319.175C326.616 319.834 326.806 320.587 326.806 321.436C326.806 322.072 326.695 322.662 326.471 323.205C326.252 323.745 325.945 324.205 325.55 324.584C325.16 324.964 324.685 325.26 324.127 325.472C323.569 325.684 322.96 325.79 322.302 325.79ZM324.16 319.488C323.68 318.982 323.061 318.729 322.302 318.729C321.542 318.729 320.921 318.982 320.437 319.488C319.957 319.99 319.717 320.64 319.717 321.436C319.717 322.229 319.957 322.876 320.437 323.378C320.921 323.881 321.542 324.136 322.302 324.143C323.061 324.143 323.68 323.892 324.16 323.39C324.644 322.884 324.886 322.232 324.886 321.436C324.886 320.64 324.644 319.99 324.16 319.488Z" fill="white"/>
<path d="M317.067 325.506H311.742V317.367H313.662V323.859H317.067V325.506Z" fill="white"/>
<path d="M306.93 325.506V318.294H304.234V317.445H310.581V318.294H307.879V325.506H306.93Z" fill="white"/>
<path d="M303.225 323.161C303.225 323.935 302.94 324.567 302.371 325.059C301.805 325.546 301.054 325.79 300.116 325.79C299.13 325.79 298.317 325.518 297.677 324.975C297.04 324.432 296.718 323.739 296.711 322.898H297.66C297.66 323.494 297.891 323.985 298.352 324.372C298.813 324.755 299.405 324.947 300.127 324.947C300.782 324.947 301.301 324.793 301.685 324.484C302.072 324.175 302.265 323.773 302.265 323.278C302.265 323.07 302.217 322.889 302.12 322.737C302.027 322.58 301.919 322.457 301.796 322.368C301.673 322.279 301.487 322.201 301.238 322.134C300.992 322.063 300.784 322.015 300.613 321.989C300.445 321.959 300.2 321.923 299.876 321.882C299.668 321.853 299.5 321.829 299.374 321.81C299.247 321.791 299.085 321.763 298.888 321.726C298.694 321.685 298.538 321.646 298.419 321.609C298.3 321.572 298.159 321.522 297.995 321.458C297.835 321.391 297.705 321.321 297.604 321.246C297.507 321.172 297.405 321.081 297.297 320.973C297.189 320.865 297.105 320.747 297.046 320.621C296.986 320.494 296.936 320.349 296.895 320.186C296.858 320.018 296.839 319.836 296.839 319.639C296.839 318.917 297.12 318.323 297.682 317.858C298.244 317.393 298.975 317.16 299.876 317.16C300.483 317.16 301.028 317.277 301.511 317.512C301.999 317.743 302.379 318.066 302.65 318.483C302.926 318.896 303.065 319.365 303.069 319.89H302.142C302.142 319.339 301.928 318.889 301.5 318.539C301.076 318.185 300.535 318.009 299.876 318.009C299.254 318.009 298.752 318.154 298.369 318.444C297.989 318.731 297.799 319.103 297.799 319.56C297.799 319.709 297.822 319.845 297.866 319.968C297.915 320.091 297.971 320.195 298.034 320.28C298.101 320.366 298.198 320.444 298.324 320.515C298.454 320.586 298.573 320.643 298.681 320.688C298.793 320.729 298.942 320.77 299.128 320.811C299.318 320.852 299.478 320.883 299.608 320.906C299.738 320.924 299.917 320.948 300.144 320.978C300.419 321.015 300.633 321.047 300.786 321.073C300.938 321.099 301.139 321.142 301.389 321.201C301.642 321.257 301.839 321.317 301.98 321.38C302.125 321.443 302.287 321.531 302.466 321.642C302.648 321.75 302.786 321.871 302.879 322.005C302.976 322.139 303.058 322.305 303.125 322.502C303.192 322.699 303.225 322.919 303.225 323.161Z" fill="white"/>
<path d="M294.004 322.235V317.445H294.953V322.235C294.953 323.277 294.648 324.131 294.037 324.797C293.427 325.459 292.646 325.79 291.693 325.79C291.06 325.79 290.495 325.64 289.996 325.338C289.501 325.037 289.114 324.616 288.835 324.077C288.56 323.533 288.422 322.919 288.422 322.235V317.445H289.371V322.235C289.371 322.726 289.464 323.178 289.65 323.591C289.84 324 290.113 324.33 290.47 324.579C290.828 324.825 291.235 324.947 291.693 324.947C292.381 324.947 292.938 324.696 293.362 324.194C293.79 323.688 294.004 323.035 294.004 322.235Z" fill="white"/>
<path d="M283.624 318.294H281.09V321.621H283.624C284.219 321.621 284.707 321.468 285.086 321.163C285.47 320.858 285.661 320.465 285.661 319.985C285.661 319.468 285.471 319.057 285.092 318.751C284.716 318.446 284.227 318.294 283.624 318.294ZM281.09 322.463V325.506H280.141V317.445H283.691C284.543 317.445 285.243 317.683 285.79 318.16C286.337 318.636 286.61 319.245 286.61 319.985C286.61 320.547 286.424 321.048 286.052 321.487C285.68 321.922 285.202 322.203 284.617 322.33L286.677 325.506H285.566L283.657 322.463H281.09Z" fill="white"/>
<path d="M275.173 325.506V318.294H272.477V317.445H278.823V318.294H276.122V325.506H275.173Z" fill="white"/>
<defs>
<filter id="filter0_d_1347_19060" x="0" y="0" width="624" height="624" filterUnits="userSpaceOnUse" color-interpolation-filters="sRGB">
<feFlood flood-opacity="0" result="BackgroundImageFix"/>
<feColorMatrix in="SourceAlpha" type="matrix" values="0 0 0 0 0 0 0 0 0 0 0 0 0 0 0 0 0 0 127 0" result="hardAlpha"/>
<feOffset/>
<feGaussianBlur stdDeviation="25"/>
<feComposite in2="hardAlpha" operator="out"/>
<feColorMatrix type="matrix" values="0 0 0 0 0.12549 0 0 0 0 0.12549 0 0 0 0 0.12549 0 0 0 0.25 0"/>
<feBlend mode="normal" in2="BackgroundImageFix" result="effect1_dropShadow_1347_19060"/>
<feBlend mode="normal" in="SourceGraphic" in2="effect1_dropShadow_1347_19060" result="shape"/>
</filter>
<linearGradient id="paint0_linear_1347_19060" x1="312" y1="574" x2="312" y2="50" gradientUnits="userSpaceOnUse">
<stop stop-color="#6FBE46"/>
<stop offset="0.34" stop-color="#41B57F"/>
<stop offset="0.63" stop-color="#1EAEAB"/>
<stop offset="0.86" stop-color="#08AAC5"/>
<stop offset="1" stop-color="#00A8CF"/>
</linearGradient>
<linearGradient id="paint1_linear_1347_19060" x1="412.242" y1="236" x2="412.242" y2="191.003" gradientUnits="userSpaceOnUse">
<stop stop-color="#6FBE46"/>
<stop offset="0.34" stop-color="#41B57F"/>
<stop offset="0.63" stop-color="#1EAEAB"/>
<stop offset="0.86" stop-color="#08AAC5"/>
<stop offset="1" stop-color="#00A8CF"/>
</linearGradient>
<linearGradient id="paint2_linear_1347_19060" x1="312.248" y1="465" x2="312.248" y2="420.003" gradientUnits="userSpaceOnUse">
<stop stop-color="#6FBE46"/>
<stop offset="0.34" stop-color="#41B57F"/>
<stop offset="0.63" stop-color="#1EAEAB"/>
<stop offset="0.86" stop-color="#08AAC5"/>
<stop offset="1" stop-color="#00A8CF"/>
</linearGradient>
<linearGradient id="paint3_linear_1347_19060" x1="207.248" y1="236" x2="207.248" y2="191.003" gradientUnits="userSpaceOnUse">
<stop stop-color="#6FBE46"/>
<stop offset="0.34" stop-color="#41B57F"/>
<stop offset="0.63" stop-color="#1EAEAB"/>
<stop offset="0.86" stop-color="#08AAC5"/>
<stop offset="1" stop-color="#00A8CF"/>
</linearGradient>
<linearGradient id="paint4_linear_1347_19060" x1="311.6" y1="380.167" x2="311.6" y2="259.008" gradientUnits="userSpaceOnUse">
<stop stop-color="#6FBE46"/>
<stop offset="0.34" stop-color="#41B57F"/>
<stop offset="0.63" stop-color="#1EAEAB"/>
<stop offset="0.86" stop-color="#08AAC5"/>
<stop offset="1" stop-color="#00A8CF"/>
</linearGradient>
<clipPath id="clip0_1347_19060">
<rect width="500" height="500" fill="white" transform="translate(62 70)"/>
</clipPath>
<clipPath id="clip1_1347_19060">
<rect width="100" height="70" fill="white" transform="translate(362 189)"/>
</clipPath>
<clipPath id="clip2_1347_19060">
<rect width="100" height="70" fill="white" transform="translate(262 418)"/>
</clipPath>
<clipPath id="clip3_1347_19060">
<rect width="100" height="70" fill="white" transform="translate(157 189)"/>
</clipPath>
<clipPath id="clip4_1347_19060">
<rect width="28.8" height="28.8" fill="white" transform="matrix(1 0 0 -1 295.195 117.199)"/>
</clipPath>
</defs>
</svg>
