<svg width="40" height="28" viewBox="0 0 40 28" fill="none" xmlns="http://www.w3.org/2000/svg">
<g clip-path="url(#clip0_2802_2945)">
<g clip-path="url(#clip1_2802_2945)">
<g clip-path="url(#clip2_2802_2945)">
<mask id="mask0_2802_2945" style="mask-type:luminance" maskUnits="userSpaceOnUse" x="0" y="0" width="40" height="28">
<path d="M40 0.342773H0V27.6598H40V0.342773Z" fill="white"/>
</mask>
<g mask="url(#mask0_2802_2945)">
<path d="M33.7775 27.6598C33.4467 27.6598 33.1005 27.5506 32.8236 27.3242L22.1159 18.7389C21.7467 18.4423 21.5312 17.9974 21.5312 17.5135V1.90375C21.5312 1.04521 22.2236 0.342773 23.0698 0.342773H38.4544C39.3005 0.342773 39.9928 1.04521 39.9928 1.90375V17.5135C39.9928 18.372 39.3005 19.0745 38.4544 19.0745H32.9467L35.2236 25.5759C35.4544 26.2316 35.2236 26.9652 34.6621 27.3711C34.4005 27.5662 34.0851 27.6677 33.7698 27.6677L33.7775 27.6598ZM24.6159 16.7564L30.539 21.5018L29.3236 18.0364C29.1544 17.5603 29.2312 17.0296 29.5159 16.6159C29.8005 16.2023 30.2698 15.9525 30.7698 15.9525H36.9236V3.46472H24.6159V16.7564Z" fill="white"/>
<path d="M12.2384 27.6598C11.9077 27.6598 11.5616 27.5506 11.2846 27.3242L0.584616 18.7389C0.215384 18.4423 0 17.9974 0 17.5135V1.90375C0 1.04521 0.692307 0.342773 1.53846 0.342773H16.9231C17.7693 0.342773 18.4616 1.04521 18.4616 1.90375V17.5135C18.4616 18.372 17.7693 19.0745 16.9231 19.0745H11.4154L13.6923 25.5759C13.9231 26.2316 13.6923 26.9652 13.1307 27.3711C12.8693 27.5662 12.5539 27.6677 12.2384 27.6677V27.6598ZM3.07693 16.7564L9 21.5018L7.78461 18.0364C7.61539 17.5603 7.69231 17.0296 7.97693 16.6159C8.26154 16.2023 8.73077 15.9525 9.23077 15.9525H15.3846V3.46472H3.07693V16.7564Z" fill="white"/>
</g>
</g>
</g>
</g>
<defs>
<clipPath id="clip0_2802_2945">
<rect width="40" height="28" fill="white" transform="translate(0 0.000976562)"/>
</clipPath>
<clipPath id="clip1_2802_2945">
<rect width="40" height="28" fill="white" transform="translate(0 0.000976562)"/>
</clipPath>
<clipPath id="clip2_2802_2945">
<rect width="40" height="27.3171" fill="white" transform="translate(0 0.342773)"/>
</clipPath>
</defs>
</svg>
