<svg width="120" height="120" viewBox="0 0 120 120" fill="none" xmlns="http://www.w3.org/2000/svg">
<path d="M33.92 56.36C32.26 58.5 32.26 61.5 33.92 63.64C40.32 71.9 49.83 76.63 60 76.63C70.17 76.63 79.68 71.89 86.08 63.64C87.74 61.5 87.74 58.5 86.08 56.36C79.68 48.1 70.17 43.37 60 43.37C49.83 43.37 40.32 48.11 33.92 56.36ZM81.39 60C76.33 66.52 68.63 70.69 60 70.69C51.37 70.69 43.67 66.52 38.61 60C43.67 53.48 51.37 49.31 60 49.31C68.63 49.31 76.33 53.48 81.39 60ZM60 54.63C62.97 54.63 65.37 57.04 65.37 60C65.37 62.96 62.97 65.37 60 65.37C57.03 65.37 54.63 62.96 54.63 60C54.63 57.04 57.03 54.63 60 54.63ZM45.74 105.74H34.45C32.81 105.74 31.48 104.41 31.48 102.77C31.48 101.13 32.81 99.8 34.45 99.8H38.57L0.87 62.1C-0.29 60.94 -0.29 59.06 0.87 57.9L57.9 0.87C59.06 -0.29 60.94 -0.29 62.1 0.87C63.26 2.03 63.26 3.91001 62.1 5.07001L7.17 60L42.77 95.6V91.48C42.77 89.84 44.1 88.51 45.74 88.51C47.38 88.51 48.71 89.84 48.71 91.48V102.77C48.71 103.16 48.63 103.54 48.48 103.9C48.18 104.63 47.6 105.21 46.87 105.51C46.51 105.66 46.12 105.74 45.73 105.74H45.74ZM119.13 62.1L62.1 119.13C61.52 119.71 60.76 120 60 120C59.24 120 58.48 119.71 57.9 119.13C56.74 117.97 56.74 116.09 57.9 114.93L112.83 60L77.23 24.4V28.52C77.23 30.16 75.9 31.49 74.26 31.49C72.62 31.49 71.29 30.16 71.29 28.52V17.23C71.29 16.84 71.37 16.46 71.52 16.1C71.82 15.37 72.4 14.79 73.13 14.49C73.49 14.34 73.88 14.26 74.26 14.26H85.55C87.19 14.26 88.52 15.59 88.52 17.23C88.52 18.87 87.19 20.2 85.55 20.2H81.43L119.13 57.9C120.29 59.06 120.29 60.94 119.13 62.1ZM69.56 9.48002C68.4 8.32002 68.4 6.44 69.56 5.28L73.42 1.42002C74.58 0.260018 76.46 0.260018 77.62 1.42002C78.78 2.58002 78.78 4.46 77.62 5.62L73.76 9.48002C73.18 10.06 72.42 10.35 71.66 10.35C70.9 10.35 70.14 10.06 69.56 9.48002ZM62.31 12.53C63.47 11.37 65.35 11.37 66.51 12.53C67.67 13.69 67.67 15.57 66.51 16.73L62.65 20.59C62.07 21.17 61.31 21.46 60.55 21.46C59.79 21.46 59.03 21.17 58.45 20.59C57.29 19.43 57.29 17.55 58.45 16.39L62.31 12.53ZM50.44 110.52C51.6 111.68 51.6 113.56 50.44 114.72L46.58 118.58C46 119.16 45.24 119.45 44.48 119.45C43.72 119.45 42.96 119.16 42.38 118.58C41.22 117.42 41.22 115.54 42.38 114.38L46.24 110.52C47.4 109.36 49.28 109.36 50.44 110.52ZM57.69 107.47C57.11 108.05 56.35 108.34 55.59 108.34C54.83 108.34 54.07 108.05 53.49 107.47C52.33 106.31 52.33 104.43 53.49 103.27L57.35 99.41C58.51 98.25 60.39 98.25 61.55 99.41C62.71 100.57 62.71 102.45 61.55 103.61L57.69 107.47Z" fill="white"/>
</svg>
