<svg width="200" height="34" viewBox="0 0 200 34" fill="none" xmlns="http://www.w3.org/2000/svg">
<g clip-path="url(#clip0_2334_87)">
<path d="M194.951 9.17578L191.405 14.0841L192.988 16.1677L198.137 9.17578H194.951ZM191.305 19.3932L195.152 24.6821H198.537L192.988 17.1694L191.305 19.3932Z" fill="#ffffff"/>
<mask id="mask0_2334_87" style="mask-type:luminance" maskUnits="userSpaceOnUse" x="183" y="9" width="10" height="16">
<path d="M183.612 9.17578L189.161 16.7687L183.312 24.6821H186.637L192.607 16.6685L186.938 9.17578H183.612Z" fill="white"/>
</mask>
<g mask="url(#mask0_2334_87)">
<path d="M175.919 19.2928L186.537 4.74805L200 14.5647L189.382 29.1095L175.919 19.2928Z" fill="url(#paint0_linear_2334_87)"/>
</g>
<path d="M181.008 9.17578H178.123V24.7022H181.008V9.17578Z" fill="#ffffff"/>
<path d="M171.592 16.7488H174.316V22.9394C172.693 24.2416 170.43 24.9227 168.246 24.9227C163.438 24.9227 159.872 21.577 159.872 16.9291C159.872 12.2812 163.418 8.93555 168.286 8.93555C170.89 8.93555 173.054 9.79701 174.516 11.4598L172.693 13.2429C171.471 12.0208 170.069 11.4598 168.406 11.4598C165.1 11.4598 162.777 13.7037 162.777 16.9091C162.777 20.0545 165.1 22.3584 168.386 22.3584C169.488 22.3584 170.59 22.138 171.571 21.557V16.7488H171.592Z" fill="#ffffff"/>
<path d="M155.023 16.9291C155.023 13.7638 152.699 11.4799 149.574 11.4799C146.449 11.4799 144.125 13.7638 144.125 16.9291C144.125 20.0945 146.449 22.3784 149.574 22.3784C152.699 22.3784 155.023 20.0945 155.023 16.9291ZM141.2 16.9291C141.2 12.3413 144.746 8.93555 149.554 8.93555C154.362 8.93555 157.928 12.3013 157.928 16.9291C157.928 21.537 154.382 24.9227 149.554 24.9227C144.766 24.9227 141.2 21.5169 141.2 16.9291Z" fill="#ffffff"/>
<path d="M129.32 9.17578H132.205V22.258H140.319V24.7022H129.32V9.17578Z" fill="#ffffff"/>
<path d="M119.623 11.0991H114.294V9.17578H127.156V11.0991H121.827V24.7022H119.623V11.0991Z" fill="#ffffff"/>
<path d="M101.573 22.9188L102.394 21.1959C103.556 22.2376 105.519 22.9989 107.523 22.9989C110.207 22.9989 111.369 21.9572 111.369 20.5948C111.369 16.8084 101.973 19.1924 101.973 13.4226C101.973 11.0186 103.837 8.99512 107.924 8.99512C109.747 8.99512 111.63 9.47593 112.912 10.3775L112.171 12.1605C110.808 11.299 109.286 10.8984 107.904 10.8984C105.259 10.8984 104.137 12.0002 104.137 13.3625C104.137 17.149 113.533 14.785 113.533 20.4746C113.533 22.8587 111.63 24.8821 107.523 24.8821C105.139 24.8821 102.815 24.0808 101.573 22.9188Z" fill="#ffffff"/>
<path d="M85.3051 17.9903V9.15527H87.5288V17.8901C87.5288 21.336 89.1115 22.8786 91.8963 22.8786C94.681 22.8786 96.2837 21.3159 96.2837 17.8901V9.15527H98.4274V17.9903C98.4274 22.498 95.9632 24.862 91.8562 24.862C87.7893 24.882 85.3051 22.498 85.3051 17.9903Z" fill="#ffffff"/>
<path d="M79.6354 14.585C79.6354 12.3612 78.1529 11.0991 75.3081 11.0991H71.5417V18.0909H75.3081C78.1529 18.0909 79.6354 16.7887 79.6354 14.585ZM79.6955 24.7022L76.3498 19.9341C76.0293 19.9541 75.7087 19.9741 75.3682 19.9741H71.5216V24.7022H69.2979V9.17578H75.3481C79.395 9.17578 81.8191 11.2193 81.8191 14.585C81.8191 16.9891 80.577 18.712 78.3933 19.4933L82.0796 24.7022H79.6955Z" fill="#ffffff"/>
<path d="M59.3809 11.0991H54.0519V9.17578H66.8937V11.0991H61.5847V24.7022H59.3809V11.0991Z" fill="#ffffff"/>
<mask id="mask1_2334_87" style="mask-type:luminance" maskUnits="userSpaceOnUse" x="12" y="0" width="10" height="9">
<path d="M16.8887 0.120117L12.6615 4.36734L16.9288 8.63459L21.196 4.36734L16.9688 0.120117H16.8887Z" fill="white"/>
</mask>
<g mask="url(#mask1_2334_87)">
<path d="M12.5413 8.63468L12.6615 0L21.3162 0.120206L21.196 8.75489L12.5413 8.63468Z" fill="url(#paint1_linear_2334_87)"/>
</g>
<mask id="mask2_2334_87" style="mask-type:luminance" maskUnits="userSpaceOnUse" x="6" y="6" width="9" height="9">
<path d="M10.6317 6.39064L6.36829 10.6553L10.6329 14.9187L14.8963 10.6541L10.6317 6.39064Z" fill="white"/>
</mask>
<g mask="url(#mask2_2334_87)">
<path d="M6.25061 14.9057L6.37081 6.25098L15.0255 6.37118L14.9053 15.0259L6.25061 14.9057Z" fill="url(#paint2_linear_2334_87)"/>
</g>
<mask id="mask3_2334_87" style="mask-type:luminance" maskUnits="userSpaceOnUse" x="0" y="12" width="9" height="10">
<path d="M0.120239 16.8883V16.9685L4.34743 21.1956L8.61468 16.9284L4.34743 12.6611L0.120239 16.8883Z" fill="white"/>
</mask>
<g mask="url(#mask3_2334_87)">
<path d="M0 21.1957L0.120203 12.541L8.73485 12.6612L8.61464 21.3159L0 21.1957Z" fill="url(#paint3_linear_2334_87)"/>
</g>
<mask id="mask4_2334_87" style="mask-type:luminance" maskUnits="userSpaceOnUse" x="12" y="25" width="10" height="9">
<path d="M12.6615 29.5099L16.9288 33.7772L21.196 29.5099L16.9288 25.2227L12.6615 29.5099Z" fill="white"/>
</mask>
<g mask="url(#mask4_2334_87)">
<path d="M12.5413 33.7768L12.6615 25.1221L21.3162 25.2423L21.196 33.897L12.5413 33.7768Z" fill="url(#paint4_linear_2334_87)"/>
</g>
<mask id="mask5_2334_87" style="mask-type:luminance" maskUnits="userSpaceOnUse" x="6" y="18" width="9" height="10">
<path d="M6.37085 23.2194L10.6381 27.4867L14.9054 23.2194L10.6381 18.9521L6.37085 23.2194Z" fill="white"/>
</mask>
<g mask="url(#mask5_2334_87)">
<path d="M6.25061 27.4867L6.37081 18.832L15.0255 18.9522L14.9053 27.607L6.25061 27.4867Z" fill="url(#paint5_linear_2334_87)"/>
</g>
<mask id="mask6_2334_87" style="mask-type:luminance" maskUnits="userSpaceOnUse" x="31" y="6" width="10" height="9">
<path d="M31.5135 10.6383L35.7808 14.9056L40.0481 10.6383L35.7808 6.37109L31.5135 10.6383Z" fill="white"/>
</mask>
<g mask="url(#mask6_2334_87)">
<path d="M31.3933 14.9057L31.5135 6.25098L40.1682 6.37118L40.048 15.0259L31.3933 14.9057Z" fill="url(#paint6_linear_2334_87)"/>
</g>
<mask id="mask7_2334_87" style="mask-type:luminance" maskUnits="userSpaceOnUse" x="31" y="18" width="10" height="10">
<path d="M35.7683 18.9547L31.5043 23.2188L35.7683 27.4828L40.0323 23.2188L35.7683 18.9547Z" fill="white"/>
</mask>
<g mask="url(#mask7_2334_87)">
<path d="M31.3933 27.4867L31.5135 18.832L40.1682 18.9522L40.048 27.607L31.3933 27.4867Z" fill="url(#paint7_linear_2334_87)"/>
</g>
<mask id="mask8_2334_87" style="mask-type:luminance" maskUnits="userSpaceOnUse" x="25" y="25" width="9" height="9">
<path d="M29.4966 25.233L25.2325 29.4971L29.4966 33.7611L33.7606 29.4971L29.4966 25.233Z" fill="white"/>
</mask>
<g mask="url(#mask8_2334_87)">
<path d="M25.1027 33.7773L25.2229 25.1025L33.8776 25.2428L33.7574 33.8975L25.1027 33.7773Z" fill="url(#paint8_linear_2334_87)"/>
</g>
<mask id="mask9_2334_87" style="mask-type:luminance" maskUnits="userSpaceOnUse" x="25" y="0" width="9" height="9">
<path d="M29.4701 0.120117L25.2229 4.36734L29.4902 8.63459L33.7774 4.36734L29.5302 0.120117H29.4701Z" fill="white"/>
</mask>
<g mask="url(#mask9_2334_87)">
<path d="M25.1027 8.63468L25.2229 0L33.8776 0.120206L33.7574 8.75489L25.1027 8.63468Z" fill="url(#paint9_linear_2334_87)"/>
</g>
<mask id="mask10_2334_87" style="mask-type:luminance" maskUnits="userSpaceOnUse" x="37" y="12" width="10" height="10">
<path d="M42.0549 12.6643L37.7903 16.9277L42.0537 21.1924L46.3183 16.9289L42.0549 12.6643Z" fill="white"/>
</mask>
<g mask="url(#mask10_2334_87)">
<path d="M37.6841 21.1957L37.8043 12.541L46.459 12.6612L46.3388 21.3159L37.6841 21.1957Z" fill="url(#paint10_linear_2334_87)"/>
</g>
<mask id="mask11_2334_87" style="mask-type:luminance" maskUnits="userSpaceOnUse" x="12" y="6" width="22" height="22">
<path d="M22.6986 16.929C22.6986 16.6486 22.9189 16.4282 23.1994 16.4282C23.4799 16.4282 23.7003 16.6486 23.7003 16.929C23.7003 17.2095 23.4799 17.4299 23.1994 17.4299C22.939 17.4499 22.6986 17.2095 22.6986 16.929ZM18.9322 10.6383L22.4782 14.1844C22.7386 14.4448 22.8989 14.8054 22.8989 15.1861C22.8989 15.9674 22.2578 16.6085 21.4765 16.6085C21.0958 16.6085 20.7352 16.4482 20.4748 16.1878L16.9288 12.6618L12.6615 16.929L16.9288 21.1963L20.4748 17.6503C20.7352 17.3898 21.0958 17.2295 21.4765 17.2295C22.2578 17.2295 22.8989 17.8706 22.8989 18.652C22.8989 19.0326 22.7386 19.3932 22.4782 19.6537L18.9322 23.1997L23.2194 27.487L27.4867 23.2197L23.9206 19.6737C23.6602 19.4133 23.4999 19.0527 23.4999 18.672C23.4999 17.8907 24.141 17.2496 24.9223 17.2496C25.303 17.2496 25.6636 17.4099 25.924 17.6703L29.4701 21.2163L33.7373 16.9491L29.4901 12.6618L25.9441 16.2078C25.6836 16.4683 25.323 16.6285 24.9424 16.6285C24.161 16.6285 23.52 15.9874 23.52 15.2061C23.52 14.8255 23.6802 14.4649 23.9407 14.2044L27.4867 10.6584L23.2194 6.37109L18.9322 10.6383Z" fill="white"/>
</mask>
<g mask="url(#mask11_2334_87)">
<path d="M12.361 27.4872L12.6615 6.09082L34.0578 6.3713L33.7573 27.7877L12.361 27.4872Z" fill="url(#paint11_linear_2334_87)"/>
</g>
</g>
<defs>
<linearGradient id="paint0_linear_2334_87" x1="182.8" y1="24.0054" x2="194.197" y2="8.37641" gradientUnits="userSpaceOnUse">
<stop stop-color="#6FBE46"/>
<stop offset="0.3369" stop-color="#41B57F"/>
<stop offset="0.6335" stop-color="#1EAEAB"/>
<stop offset="0.8639" stop-color="#08AAC5"/>
<stop offset="1" stop-color="#00A8CF"/>
</linearGradient>
<linearGradient id="paint1_linear_2334_87" x1="16.5126" y1="33.4692" x2="16.9781" y2="0.127594" gradientUnits="userSpaceOnUse">
<stop stop-color="#6FBE46"/>
<stop offset="0.3369" stop-color="#41B57F"/>
<stop offset="0.6335" stop-color="#1EAEAB"/>
<stop offset="0.8639" stop-color="#08AAC5"/>
<stop offset="1" stop-color="#00A8CF"/>
</linearGradient>
<linearGradient id="paint2_linear_2334_87" x1="10.3149" y1="33.3874" x2="10.7804" y2="0.0458441" gradientUnits="userSpaceOnUse">
<stop stop-color="#6FBE46"/>
<stop offset="0.3369" stop-color="#41B57F"/>
<stop offset="0.6335" stop-color="#1EAEAB"/>
<stop offset="0.8639" stop-color="#08AAC5"/>
<stop offset="1" stop-color="#00A8CF"/>
</linearGradient>
<linearGradient id="paint3_linear_2334_87" x1="4.1366" y1="33.3044" x2="4.60212" y2="-0.0372474" gradientUnits="userSpaceOnUse">
<stop stop-color="#6FBE46"/>
<stop offset="0.3369" stop-color="#41B57F"/>
<stop offset="0.6335" stop-color="#1EAEAB"/>
<stop offset="0.8639" stop-color="#08AAC5"/>
<stop offset="1" stop-color="#00A8CF"/>
</linearGradient>
<linearGradient id="paint4_linear_2334_87" x1="16.8607" y1="33.4734" x2="17.3263" y2="0.131792" gradientUnits="userSpaceOnUse">
<stop stop-color="#6FBE46"/>
<stop offset="0.3369" stop-color="#41B57F"/>
<stop offset="0.6335" stop-color="#1EAEAB"/>
<stop offset="0.8639" stop-color="#08AAC5"/>
<stop offset="1" stop-color="#00A8CF"/>
</linearGradient>
<linearGradient id="paint5_linear_2334_87" x1="10.489" y1="33.3895" x2="10.9545" y2="0.0479263" gradientUnits="userSpaceOnUse">
<stop stop-color="#6FBE46"/>
<stop offset="0.3369" stop-color="#41B57F"/>
<stop offset="0.6335" stop-color="#1EAEAB"/>
<stop offset="0.8639" stop-color="#08AAC5"/>
<stop offset="1" stop-color="#00A8CF"/>
</linearGradient>
<linearGradient id="paint6_linear_2334_87" x1="35.4535" y1="33.7212" x2="35.919" y2="0.380267" gradientUnits="userSpaceOnUse">
<stop stop-color="#6FBE46"/>
<stop offset="0.3369" stop-color="#41B57F"/>
<stop offset="0.6335" stop-color="#1EAEAB"/>
<stop offset="0.8639" stop-color="#08AAC5"/>
<stop offset="1" stop-color="#00A8CF"/>
</linearGradient>
<linearGradient id="paint7_linear_2334_87" x1="35.6276" y1="33.7233" x2="36.0931" y2="0.382352" gradientUnits="userSpaceOnUse">
<stop stop-color="#6FBE46"/>
<stop offset="0.3369" stop-color="#41B57F"/>
<stop offset="0.6335" stop-color="#1EAEAB"/>
<stop offset="0.8639" stop-color="#08AAC5"/>
<stop offset="1" stop-color="#00A8CF"/>
</linearGradient>
<linearGradient id="paint8_linear_2334_87" x1="29.4305" y1="33.6411" x2="29.8961" y2="0.299501" gradientUnits="userSpaceOnUse">
<stop stop-color="#6FBE46"/>
<stop offset="0.3369" stop-color="#41B57F"/>
<stop offset="0.6335" stop-color="#1EAEAB"/>
<stop offset="0.8639" stop-color="#08AAC5"/>
<stop offset="1" stop-color="#00A8CF"/>
</linearGradient>
<linearGradient id="paint9_linear_2334_87" x1="29.0823" y1="33.6364" x2="29.5479" y2="0.294825" gradientUnits="userSpaceOnUse">
<stop stop-color="#6FBE46"/>
<stop offset="0.3369" stop-color="#41B57F"/>
<stop offset="0.6335" stop-color="#1EAEAB"/>
<stop offset="0.8639" stop-color="#08AAC5"/>
<stop offset="1" stop-color="#00A8CF"/>
</linearGradient>
<linearGradient id="paint10_linear_2334_87" x1="41.826" y1="33.8057" x2="42.2915" y2="0.464121" gradientUnits="userSpaceOnUse">
<stop stop-color="#6FBE46"/>
<stop offset="0.3369" stop-color="#41B57F"/>
<stop offset="0.6335" stop-color="#1EAEAB"/>
<stop offset="0.8639" stop-color="#08AAC5"/>
<stop offset="1" stop-color="#00A8CF"/>
</linearGradient>
<linearGradient id="paint11_linear_2334_87" x1="22.9715" y1="33.5515" x2="23.437" y2="0.209927" gradientUnits="userSpaceOnUse">
<stop stop-color="#6FBE46"/>
<stop offset="0.3369" stop-color="#41B57F"/>
<stop offset="0.6335" stop-color="#1EAEAB"/>
<stop offset="0.8639" stop-color="#08AAC5"/>
<stop offset="1" stop-color="#00A8CF"/>
</linearGradient>
<clipPath id="clip0_2334_87">
<rect width="200" height="33.8976" fill="white"/>
</clipPath>
</defs>
</svg>
