<svg width="120" height="120" viewBox="0 0 120 120" fill="none" xmlns="http://www.w3.org/2000/svg">
<path d="M69.56 9.47999C68.4 8.31999 68.4 6.44003 69.56 5.28003L73.42 1.41999C74.58 0.259988 76.46 0.259988 77.62 1.41999C78.78 2.57999 78.78 4.46 77.62 5.62L73.76 9.47999C73.18 10.06 72.42 10.35 71.66 10.35C70.9 10.35 70.14 10.06 69.56 9.47999ZM58.45 16.39C57.29 17.55 57.29 19.43 58.45 20.59C59.03 21.17 59.79 21.46 60.55 21.46C61.31 21.46 62.07 21.17 62.65 20.59L66.51 16.73C67.67 15.57 67.67 13.69 66.51 12.53C65.35 11.37 63.47 11.37 62.31 12.53L58.45 16.39ZM46.24 110.52L42.38 114.38C41.22 115.54 41.22 117.42 42.38 118.58C42.96 119.16 43.72 119.45 44.48 119.45C45.24 119.45 46 119.16 46.58 118.58L50.44 114.72C51.6 113.56 51.6 111.68 50.44 110.52C49.28 109.36 47.4 109.36 46.24 110.52ZM61.55 103.61C62.71 102.45 62.71 100.57 61.55 99.41C60.39 98.25 58.51 98.25 57.35 99.41L53.49 103.27C52.33 104.43 52.33 106.31 53.49 107.47C54.07 108.05 54.83 108.34 55.59 108.34C56.35 108.34 57.11 108.05 57.69 107.47L61.55 103.61ZM57.03 81.39C57.03 71.24 48.77 62.97 38.61 62.97C36.97 62.97 35.64 61.64 35.64 60C35.64 58.36 36.97 57.03 38.61 57.03C48.76 57.03 57.03 48.77 57.03 38.61C57.03 36.97 58.36 35.64 60 35.64C61.64 35.64 62.97 36.97 62.97 38.61C62.97 48.76 71.23 57.03 81.39 57.03C83.03 57.03 84.36 58.36 84.36 60C84.36 61.64 83.03 62.97 81.39 62.97C71.24 62.97 62.97 71.23 62.97 81.39C62.97 83.03 61.64 84.36 60 84.36C58.36 84.36 57.03 83.03 57.03 81.39ZM60 69.74C62.24 65.64 65.63 62.25 69.74 60C65.64 57.76 62.25 54.37 60 50.26C57.76 54.36 54.37 57.75 50.26 60C54.36 62.24 57.75 65.63 60 69.74ZM46.88 105.51C47.61 105.21 48.18 104.63 48.49 103.9C48.64 103.54 48.72 103.15 48.72 102.77V91.48C48.72 89.84 47.39 88.51 45.75 88.51C44.11 88.51 42.78 89.84 42.78 91.48V95.6L7.18 60L62.11 5.07001C63.27 3.91001 63.27 2.03 62.11 0.87C60.95 -0.29 59.07 -0.29 57.91 0.87L0.87 57.9C-0.29 59.06 -0.29 60.94 0.87 62.1L38.57 99.8H34.45C32.81 99.8 31.48 101.13 31.48 102.77C31.48 104.41 32.81 105.74 34.45 105.74H45.74C46.13 105.74 46.51 105.66 46.88 105.51ZM119.13 57.9L81.43 20.2H85.55C87.19 20.2 88.52 18.87 88.52 17.23C88.52 15.59 87.19 14.26 85.55 14.26H74.26C73.87 14.26 73.49 14.34 73.13 14.49C72.4 14.79 71.82 15.37 71.52 16.1C71.37 16.46 71.29 16.85 71.29 17.23V28.52C71.29 30.16 72.62 31.49 74.26 31.49C75.9 31.49 77.23 30.16 77.23 28.52V24.4L112.83 60L57.9 114.93C56.74 116.09 56.74 117.97 57.9 119.13C58.48 119.71 59.24 120 60 120C60.76 120 61.52 119.71 62.1 119.13L119.13 62.1C120.29 60.94 120.29 59.06 119.13 57.9Z" fill="white"/>
</svg>
